<?xml version="1.0" encoding="UTF-8" standalone="no"?>
<!DOCTYPE svg PUBLIC "-//W3C//DTD SVG 1.1//EN" "http://www.w3.org/Graphics/SVG/1.1/DTD/svg11.dtd">
<svg width="100%" height="100%" viewBox="0 0 1648 506" version="1.1" xmlns="http://www.w3.org/2000/svg" xmlns:xlink="http://www.w3.org/1999/xlink" xml:space="preserve" xmlns:serif="http://www.serif.com/" style="fill-rule:evenodd;clip-rule:evenodd;stroke-linejoin:round;stroke-miterlimit:2;">
    <g id="Calque-1" serif:id="Calque 1">
        <g transform="matrix(1,0,0,1,396.345,310.751)">
            <path d="M0,-109.902C0,-115.426 2.516,-120.367 7.546,-124.723C12.271,-128.896 17.271,-130.984 22.552,-130.984L95.822,-130.984C100.978,-130.984 105.699,-128.896 110,-124.723C114.476,-120.488 116.716,-115.548 116.716,-109.902L116.716,-86.798L89.103,-86.798L89.103,-97.294C89.103,-98.951 88.397,-100.362 86.986,-101.529C85.573,-102.756 83.856,-103.367 81.831,-103.367L34.792,-103.367C32.829,-103.367 31.141,-102.756 29.73,-101.529C28.319,-100.362 27.614,-98.951 27.614,-97.294L27.614,-12.607C27.614,-10.95 28.319,-9.537 29.73,-8.373C31.141,-7.146 32.829,-6.531 34.792,-6.531L81.831,-6.531C83.856,-6.531 85.573,-7.146 86.986,-8.373C88.397,-9.537 89.103,-10.95 89.103,-12.607L89.103,-23.194L116.716,-23.194L116.716,0.004C116.716,5.65 114.476,10.59 110,14.823C105.699,18.998 100.978,21.082 95.822,21.082L22.552,21.082C17.271,21.082 12.271,18.998 7.546,14.823C2.516,10.465 0,5.525 0,0.004L0,-109.902Z" style="fill:rgb(52,72,94);fill-rule:nonzero;"/>
        </g>
        <g transform="matrix(1,0,0,1,604.511,234.997)">
            <path d="M0,41.606L-16.753,-10.769L-33.6,41.606L0,41.606ZM-80.177,96.836L-31.484,-55.23L-2.119,-55.23L46.667,96.836L17.67,96.836L8.835,69.129L-42.438,69.129L-51.274,96.836L-80.177,96.836Z" style="fill:rgb(52,72,94);fill-rule:nonzero;"/>
        </g>
        <g transform="matrix(1,0,0,1,692.533,179.767)">
            <path d="M0,152.066L-27.614,152.066L-27.614,0L4.051,0L61.582,102.544L61.582,0L89.105,0L89.105,152.066L57.718,152.066L0,49.154L0,152.066Z" style="fill:rgb(52,72,94);fill-rule:nonzero;"/>
        </g>
        <g transform="matrix(1,0,0,1,823.165,207.38)">
            <path d="M0,96.84L54.308,96.84C56.273,96.84 57.959,96.225 59.369,94.998C60.783,93.834 61.488,92.421 61.488,90.764L61.488,6.077C61.488,4.42 60.783,3.009 59.369,1.842C57.959,0.615 56.273,0.004 54.308,0.004L0,0.004L0,96.84ZM89.196,103.375C89.196,109.205 86.496,114.146 81.097,118.194C75.694,122.369 68.976,124.453 60.936,124.453L-27.617,124.453L-27.617,-27.613L61.397,-27.613C69.556,-27.613 76.247,-25.525 81.466,-21.352C86.618,-17.364 89.196,-12.424 89.196,-6.531L89.196,103.375Z" style="fill:rgb(52,72,94);fill-rule:nonzero;"/>
        </g>
        <g transform="matrix(1,0,0,1,1051.56,331.833)">
            <path d="M0,-152.066L-50.996,-71.983L-50.996,0L-78.61,0L-78.61,-71.983L-129.607,-152.066L-96.927,-152.066L-64.804,-101.713L-32.677,-152.066L0,-152.066Z" style="fill:rgb(52,72,94);fill-rule:nonzero;"/>
        </g>
        <g transform="matrix(1,0,0,1,1182.06,331.74)">
            <path d="M0,-151.879L-65.446,-75.938L0,0.094L-36.359,0.094L-89.196,-61.304L-89.196,0.094L-116.717,0.094L-116.717,-151.973L-89.196,-151.973L-89.196,-90.575L-36.359,-151.879L0,-151.879Z" style="fill:rgb(52,72,94);fill-rule:nonzero;"/>
        </g>
        <g transform="matrix(1,0,0,1,1312.59,331.833)">
            <path d="M0,-152.066L0,-124.449L-89.103,-124.449L-89.103,-89.841L0,-89.841L0,-62.224L-89.103,-62.224L-89.103,-27.613L0,-27.613L0,0L-116.716,0L-116.716,-152.066L0,-152.066Z" style="fill:rgb(52,72,94);fill-rule:nonzero;"/>
        </g>
        <g transform="matrix(1,0,0,1,1456.02,331.833)">
            <path d="M0,-152.066L-50.995,-71.983L-50.995,0L-78.609,0L-78.609,-71.983L-129.605,-152.066L-96.929,-152.066L-64.803,-101.713L-32.679,-152.066L0,-152.066Z" style="fill:rgb(52,72,94);fill-rule:nonzero;"/>
        </g>
        <g transform="matrix(1,0,0,1,1465.54,310.751)">
            <path d="M0,-109.902C0,-115.426 2.516,-120.367 7.546,-124.723C12.334,-128.896 17.364,-130.984 22.642,-130.984L95.821,-130.984C101.036,-130.984 105.793,-128.896 110.09,-124.723C114.568,-120.488 116.81,-115.548 116.81,-109.902L116.81,-86.798L89.195,-86.798L89.195,-97.294C89.195,-98.951 88.487,-100.362 87.076,-101.529C85.666,-102.756 83.946,-103.367 81.921,-103.367L34.886,-103.367C32.919,-103.367 31.234,-102.756 29.823,-101.529C28.409,-100.362 27.707,-98.951 27.707,-97.294L27.707,-74.833C27.707,-73.175 28.409,-71.733 29.823,-70.506C31.234,-69.339 32.919,-68.759 34.886,-68.759L94.164,-68.759C99.441,-68.759 104.476,-66.699 109.26,-62.589C114.291,-58.232 116.81,-53.26 116.81,-47.677L116.81,0.004C116.81,5.525 114.291,10.465 109.26,14.823C104.476,18.998 99.441,21.082 94.164,21.082L20.984,21.082C15.767,21.082 11.011,18.998 6.716,14.823C2.237,10.59 0,5.65 0,0.004L0,-23.1L27.707,-23.1L27.707,-12.607C27.707,-10.95 28.409,-9.537 29.823,-8.373C31.234,-7.146 32.919,-6.531 34.886,-6.531L81.921,-6.531C83.946,-6.531 85.666,-7.146 87.076,-8.373C88.487,-9.537 89.195,-10.95 89.195,-12.607L89.195,-35.069C89.195,-36.723 88.487,-38.165 87.076,-39.394C85.666,-40.558 83.946,-41.142 81.921,-41.142L22.642,-41.142C17.364,-41.142 12.334,-43.199 7.546,-47.309C2.516,-51.666 0,-56.637 0,-62.22L0,-109.902Z" style="fill:rgb(52,72,94);fill-rule:nonzero;"/>
        </g>
        <g transform="matrix(1,0,0,1,77.9999,222.185)">
            <path d="M0,96.586L0,-27.186L129.208,-27.186L129.208,-94.348L27.185,-94.348C-24.838,-94.348 -67.163,-52.024 -67.163,-0L-67.163,69.401C-67.163,121.424 -24.838,163.749 27.185,163.749L129.208,163.749L129.208,96.586L0,96.586Z" style="fill:rgb(13,104,190);fill-rule:nonzero;"/>
        </g>
        <g transform="matrix(1,0,0,1,160.911,255.303)">
            <path d="M0,3.17C0,4.744 -1.276,6.02 -2.85,6.02L-14.29,6.02L-14.29,17.46C-14.29,19.033 -15.566,20.31 -17.14,20.31L-20.113,20.31C-21.687,20.31 -22.962,19.033 -22.962,17.46L-22.962,6.02L-34.402,6.02C-35.977,6.02 -37.252,4.744 -37.252,3.17L-37.252,0.197C-37.252,-1.377 -35.977,-2.652 -34.402,-2.652L-22.962,-2.652L-22.962,-14.093C-22.962,-15.667 -21.687,-16.942 -20.113,-16.942L-17.14,-16.942C-15.566,-16.942 -14.29,-15.667 -14.29,-14.093L-14.29,-2.652L-2.85,-2.652C-1.276,-2.652 0,-1.377 0,0.197L0,3.17ZM-18.626,-28.178C-35.063,-28.178 -48.389,-14.852 -48.389,1.585C-48.389,18.023 -35.063,31.348 -18.626,31.348C-2.189,31.348 11.136,18.023 11.136,1.585C11.136,-14.852 -2.189,-28.178 -18.626,-28.178" style="fill:rgb(13,104,190);fill-rule:nonzero;"/>
        </g>
        <g transform="matrix(1,0,0,1,369.516,385.934)">
            <path d="M0,-258.097L-94.982,-258.097L-162.308,-190.772L-162.308,-67.646L-94.663,0L0.32,0L-128.888,-129.209L0,-258.097Z" style="fill:rgb(51,174,255);fill-rule:nonzero;"/>
        </g>
    </g>
</svg>
