<?xml version="1.0" encoding="UTF-8"?>
<svg viewBox="0 0 800 800" version="1.1" xmlns="http://www.w3.org/2000/svg" xmlns:xlink="http://www.w3.org/1999/xlink">
    <g id="Keyboard-Atelier" stroke="none" stroke-width="1" fill="none" fill-rule="evenodd">
        <rect fill="#FFFFFF" x="-2.84217094e-14" y="0" width="800" height="800" rx="99"></rect>
        <g id="logo" transform="translate(407.500000, 386.500000) scale(-1, 1) rotate(-180.000000) translate(-407.500000, -386.500000) translate(74.000000, 132.000000)" fill="#000000" fill-rule="nonzero">
            <path d="M570.1,508 C563.1,506.3 557,499.3 557,493 C557,490 556,488 551.8,482.8 C548.9,479.2 543.9,473 540.8,468.9 C537.6,464.8 530.9,456.1 525.8,449.5 C520.6,442.9 513,432.3 508.8,426 C504.6,419.7 498.2,410.9 494.6,406.5 C490.9,402.1 485,394.7 481.3,390 C477.6,385.3 472,378.5 468.9,374.8 C465.7,371.2 461.3,365.4 459,362 C453,353.2 434.8,330.6 427.6,323 C420.5,315.6 413.4,306.3 412,302.5 C411.4,301 411,298.6 411,297.1 C411,295.5 410.1,293.5 408.9,292.4 C405.1,289.1 403.9,284.7 404.6,277.2 C405.2,270.7 404,253.5 402,241 C401,234.5 399.5,219.7 397.9,201.5 C397.3,194.4 396.2,186.3 395.5,183.5 C394.8,180.8 393.6,176.5 393,174.1 C392.4,171.8 391.7,170 391.4,170.3 C391.1,170.5 388.6,176.1 385.9,182.6 C382.5,190.6 380.6,196.7 380,201.4 C378.7,212.1 375.8,214.9 360.2,220.2 C355.4,221.8 344.3,226.7 335.5,231 C316.6,240.2 306.8,244.4 290.5,249.9 C276.8,254.5 265.6,259.1 245,268.4 C237,272.1 226.1,276.4 220.8,278 C215.5,279.7 209.2,282.2 206.8,283.5 C204.4,284.9 201.1,286 199.3,286 C193.5,286 156.4,276.4 89.5,257.5 C66.1,250.9 61.1,249.8 52,249.3 C40,248.7 38,247.9 32.2,241.6 C27.2,236.2 26.3,233.2 27.9,227.1 C28.9,223 28.7,221.3 26,210.5 C24.2,203.9 21.6,194.4 20,189.5 C18.4,184.5 16.5,176.6 15.6,172 C14.8,167.3 13.2,161.3 12.2,158.5 C11.1,155.8 10,151.3 9.6,148.5 C8.3,139 5.6,128.5 3.9,126.5 C1.2,123.2 -9.9475983e-14,120.3 -9.9475983e-14,116.8 C-9.9475983e-14,109.2 4.7,105.4 32.5,90 C40.8,85.4 50.4,80 54,78 C67.2,70.5 83,61.9 104.5,50.7 C125.3,39.9 142.4,29.6 167.5,13 L178.5,5.8 L184.8,6.3 C189.7,6.7 191.3,6.5 191.7,5.4 C192.5,3.2 197.8,0.8 201.6,0.8 C203.5,0.8 207,2 209.7,3.6 C216.6,7.7 218.2,8.3 235.2,13.4 C256.3,19.7 272.9,23.4 317.5,32 C329.1,34.2 341.4,36.9 345,38 C348.6,39.1 356.5,40.7 362.5,41.5 C395.8,46.2 418.9,51.7 423.6,56.1 C428.7,60.9 428.4,67.6 422.5,82.2 C421.1,85.6 418.9,92.7 417.5,98 C416.2,103.2 412.4,115.4 409,125 C400.9,148.2 401.2,146.6 404.8,147.3 C406.4,147.6 410.1,150.1 413.1,152.8 C416.1,155.5 426.6,163.1 436.5,169.7 C447.3,176.9 458.1,185.1 463.5,190.2 C473.1,199.2 488.3,211.5 499.2,219.3 C508.5,226 514.6,233 516.5,239.3 C518.4,245.8 530.6,264.2 539.1,273.5 C547.8,283 554.8,292 560.5,301 C563.1,305.1 569.2,312.6 574,317.5 C581.7,325.5 590,335.4 608.2,358.6 C611.3,362.5 618,370.2 623.2,375.7 C639.7,393.6 644.3,399.1 645.5,402.8 C646.2,404.8 647.2,406.5 647.7,406.4 C648.1,406.4 650.2,406 652.4,405.6 C657.3,404.5 662.2,406.7 665.1,411.2 C667,414.2 667.1,415.5 666.6,427 C665.9,441.5 664.1,450.3 660.3,456.8 C655.9,464.3 631.9,488.3 623.1,493.9 C613.1,500.3 610.1,501.5 595.1,504.9 C579.7,508.496392 574.5,509.1 570.1,508 Z M594.2,479.2 C605,476.2 613.3,470.5 625.7,457.7 C631.9,451.3 637.6,444.7 638.6,442.9 C640.2,439.8 642.9,418.6 641.8,417.5 C641.6,417.2 639.9,417.5 638.1,418.1 C630.8,420.7 625.4,417.3 612.8,402.3 C609,397.7 605.5,394 605.1,394 C604.6,394 603.9,395.5 603.6,397.4 C602.5,403.4 597.1,412.6 591.7,417.9 C581.9,427.5 564.2,438.3 556.1,439.6 C553.8,440 552,440.6 552,441 C552,444 583.5,480.9 586,481 C586.9,481 590.5,480.2 594.2,479.2 Z M559.2,410.3 C573.9,401.5 576.7,398.3 580.2,385.6 C581.2,381.7 583,377 584.1,375.2 L586,371.8 L582.8,367.7 C571.6,353.3 562.4,342.2 554.1,333.5 C548.9,328 542.6,320.4 540.1,316.5 C534.3,307.5 528.8,300.3 520.5,291 C516.8,286.9 511.6,280.3 508.9,276.3 C506.2,272.4 503.7,268.9 503.2,268.6 C502.7,268.3 499.9,270.8 497,274.2 C486.4,286.2 472.4,294.4 455.9,298 C451,299.1 445.9,300 444.5,300 C443.1,300 442,300.4 442,300.8 C442,301.2 444.1,303.6 446.6,306 C451.9,311.3 472.1,336 480,347.1 C483,351.4 493.4,364.7 503.1,376.7 C512.8,388.7 523.2,402 526.3,406.2 C532.6,414.7 531.9,414.4 545.9,414.8 C550.6,415 552.1,414.5 559.2,410.3 Z M452.6,272.6 C465,269.3 477.1,260 484,248.5 L487.4,242.7 L484.6,240.6 C478.7,236.3 455.4,217.7 452.4,214.9 L449.3,211.9 L444.9,216.3 C441.8,219.4 438.3,221.5 433.1,223.5 L425.7,226.3 L426.3,231.4 C426.7,234.2 427.6,242.4 428.5,249.5 C429.3,256.7 430,264.8 430,267.7 C430,272.3 430.3,272.9 432.3,273.3 C437.2,274.3 447.8,273.9 452.6,272.6 Z M239.7,243.1 C253.9,236.5 272.2,229 278.5,227 C284.6,225.1 300.5,219.2 306.3,216.6 C316.6,212 333,203.7 333,203 C333,201.5 288.1,188.7 272.5,185.7 C264.6,184.2 260.5,183.5 228.5,178.6 C219.7,177.2 208,175.2 202.5,174 C197,172.9 190.3,172 187.7,172 C185,172 180.9,171.5 178.5,170.9 L174.1,169.8 L155.8,180.2 C139.9,189.3 118.6,202.5 88.3,222 C83.7,224.9 80,227.6 80,228 C80,228.7 84,229.9 119.5,239.6 C132.7,243.2 148.2,247.5 154,249.1 C159.8,250.7 170.1,253.3 177,255 C183.9,256.6 190.8,258.3 192.4,258.8 C196.2,259.9 221.8,251.4 239.7,243.1 Z M68.5,204.3 C72.9,201.8 79.7,197.5 83.6,194.9 C96.1,186.5 126.9,167.2 133.8,163.4 C140.4,159.7 144.9,157.2 158.5,149.1 L165.6,145 L167.3,133.8 C169.2,121.2 170.3,110.1 172.5,80.2 C173.4,69.1 174.7,55.2 175.5,49.3 C176.4,43.5 176.9,38.5 176.7,38.3 C176.5,38.1 172.3,40.5 167.4,43.7 C162.5,46.8 154.2,52 149.1,55.3 C143.9,58.7 129,66.8 116.1,73.5 C103.1,80.2 86.4,89.1 79,93.2 C59.6,104 56.7,105.6 44.5,112.3 C29.9,120.3 30.1,120.1 31.2,125.3 C31.6,127.6 32.9,134 33.9,139.5 C35,145 36.5,151.1 37.4,153.1 C38.2,155 39.6,160.8 40.5,165.9 C41.4,171 43.4,179.1 44.9,183.9 C46.4,188.6 48.5,196.1 49.5,200.5 C52,212.1 52.2,212.3 56.8,210.5 C58.8,209.6 64.1,206.8 68.5,204.3 Z M359.2,180.8 C360.1,178.4 365,166.8 370.1,155 C381,129.5 389,107 393.1,90.5 C394.8,84 396.6,77.7 397.2,76.7 C397.8,75.5 397.8,74.4 397.2,73.8 C395.9,72.5 380,69.4 364.5,67.5 C357.4,66.6 347.5,64.7 342.5,63.4 C337.6,62 323.4,58.9 311,56.5 C270.4,48.5 258.7,46 245.5,42.5 C233,39.2 209.2,32.1 205.9,30.6 C204.5,30 204,30.9 203.1,36.2 C200.9,49.1 198.1,74 197,90.5 C196.4,99.9 195.2,113.5 194.4,120.8 L193,134.1 L196.4,137.4 C198.5,139.4 200.1,142 200.5,144.2 C201.1,147.6 201.5,148 205.8,148.9 C213.8,150.6 226.1,152.6 257.5,157.5 C285.2,161.8 293.3,163.8 329.9,174.8 C342.8,178.7 354,182.6 354.9,183.5 C357.1,185.7 357.4,185.5 359.2,180.8 Z"></path>
            <path d="M31.8,467.4 C26.5,464.6 25.5,461 25.7,446 C25.9,438.6 26.8,426 27.7,418 C29.1,406.4 29.4,397.7 29.2,374.5 C28.9,348.4 28.6,344.4 26.4,334.3 C25.1,328.1 24,321.7 24,320 C24,312.5 29.8,306 36.5,306 C40.7,306 45.7,309.4 47.5,313.2 C48.3,315 50.1,322.3 51.5,329.4 C53.5,339.8 54,345.3 54,357.9 C54,366.5 54.4,374 54.8,374.6 C55.2,375.2 60.7,376.3 67,377 C92.8,380 364.6,378.8 381.5,375.6 L387.5,374.5 L388.2,366.5 C388.5,362.1 389.3,352.3 389.9,344.7 C390.6,336.4 391.6,329.7 392.5,327.9 C395.7,321.8 405.4,320 410.9,324.6 C415.5,328.5 416.4,333.1 415.1,347.9 C414.5,354.8 413.5,367.7 413,376.5 C412.4,385.3 411.3,398.4 410.4,405.6 C409.6,412.8 408.7,425.8 408.3,434.5 C407.7,449.2 407.5,450.4 405.3,453.1 C403.9,454.7 401.1,456.5 399,457.1 C395.8,458.1 394.6,458 391.4,456.4 C383,452.2 381.8,446.3 384,417.8 C384.6,409 385,401.7 384.8,401.6 C384.6,401.5 364.9,401.9 341,402.6 C290.6,404 91.2,404.2 73.5,402.9 C66.9,402.5 60.1,401.8 58.4,401.4 L55.2,400.8 L54.1,409.6 C53.5,414.5 52.7,420.5 52.4,423 C52,425.5 51.5,434.7 51.1,443.5 C50.3,461.2 49.2,464.8 44,467.5 C40.4,469.4 35.3,469.4 31.8,467.4 Z"></path>
        </g>
    </g>
</svg>
