M48
; DRILL file {KiCad 7.0.10} date 
; FORMAT={-:-/ absolute / inch / decimal}
; #@! TF.CreationDate,2024-02-04T16:24:50+01:00
; #@! TF.GenerationSoftware,Kicad,Pcbnew,7.0.10
; #@! TF.FileFunction,NonPlated,1,2,NPTH
FMAT,2
INCH
; #@! TA.AperFunction,NonPlated,NPTH,ComponentDrill
T1C0.0256
; #@! TA.AperFunction,NonPlated,NPTH,ComponentDrill
T2C0.0689
; #@! TA.AperFunction,NonPlated,NPTH,ComponentDrill
T3C0.1200
; #@! TA.AperFunction,NonPlated,NPTH,ComponentDrill
T4C0.1570
%
G90
G05
T1
X3.1185Y-3.3402
X3.3461Y-3.3402
T2
X2.675Y-3.5
X2.675Y-4.25
X2.675Y-6.5
X2.7687Y-5.0
X2.8625Y-5.75
X2.9562Y-5.0
X3.075Y-3.5
X3.075Y-4.25
X3.075Y-6.5
X3.1687Y-5.0
X3.2625Y-5.75
X3.3562Y-5.0
X3.425Y-3.5
X3.425Y-4.25
X3.425Y-6.5
X3.8Y-5.75
X3.825Y-3.5
X3.825Y-4.25
X3.825Y-6.5
X3.9875Y-5.0
X4.175Y-3.5
X4.175Y-4.25
X4.175Y-6.5
X4.2Y-5.75
X4.3875Y-5.0
X4.55Y-5.75
X4.575Y-3.5
X4.575Y-4.25
X4.575Y-6.5
X4.7375Y-5.0
X4.925Y-3.5
X4.925Y-4.25
X4.925Y-6.5
X4.95Y-5.75
X5.1375Y-5.0
X5.3Y-5.75
X5.325Y-3.5
X5.325Y-4.25
X5.325Y-6.5
X5.4875Y-5.0
X5.675Y-3.5
X5.675Y-4.25
X5.7Y-5.75
X5.7687Y-6.5
X5.8875Y-5.0
X6.05Y-5.75
X6.075Y-3.5
X6.075Y-4.25
X6.1688Y-6.5
X6.2375Y-5.0
X6.425Y-3.5
X6.425Y-4.25
X6.45Y-5.75
X6.6375Y-5.0
X6.7062Y-6.5
X6.8Y-5.75
X6.825Y-3.5
X6.825Y-4.25
X6.9875Y-5.0
X7.1063Y-6.5
X7.175Y-3.5
X7.175Y-4.25
X7.2Y-5.75
X7.3875Y-5.0
X7.55Y-5.75
X7.55Y-6.5
X7.575Y-3.5
X7.575Y-4.25
X7.925Y-3.5
X7.925Y-4.25
X7.925Y-5.0
X7.925Y-6.5
X7.95Y-5.75
X7.95Y-6.5
X8.3Y-5.75
X8.3Y-6.5
X8.325Y-3.5
X8.325Y-4.25
X8.325Y-5.0
X8.325Y-6.5
X8.675Y-3.5
X8.675Y-4.25
X8.7Y-5.75
X8.7Y-6.5
X8.8625Y-5.0
X9.05Y-5.75
X9.075Y-3.5
X9.075Y-4.25
X9.1437Y-6.5
X9.2625Y-5.0
X9.425Y-3.5
X9.425Y-4.25
X9.45Y-5.75
X9.5437Y-6.5
X9.6125Y-5.0
X9.8Y-5.75
X9.825Y-3.5
X9.825Y-4.25
X10.0125Y-5.0
X10.0812Y-6.5
X10.175Y-3.5
X10.175Y-4.25
X10.2Y-5.75
X10.3625Y-5.0
X10.4812Y-6.5
X10.55Y-5.75
X10.575Y-3.5
X10.575Y-4.25
X10.7625Y-5.0
X10.925Y-3.5
X10.925Y-4.25
X10.925Y-6.5
X10.95Y-5.75
X11.1125Y-5.0
X11.3Y-5.75
X11.325Y-3.5
X11.325Y-4.25
X11.325Y-6.5
X11.5125Y-5.0
X11.675Y-3.5
X11.675Y-4.25
X11.675Y-6.5
X11.7Y-5.75
X11.8625Y-5.0
X12.05Y-5.75
X12.075Y-3.5
X12.075Y-4.25
X12.075Y-6.5
X12.2625Y-5.0
X12.425Y-3.5
X12.425Y-4.25
X12.425Y-6.5
X12.45Y-5.75
X12.7062Y-5.0
X12.825Y-3.5
X12.825Y-4.25
X12.825Y-6.5
X12.8937Y-4.9975
X12.9875Y-5.75
X13.1062Y-5.0
X13.175Y-3.5
X13.175Y-4.25
X13.175Y-6.5
X13.2937Y-4.9975
X13.3875Y-5.75
X13.575Y-3.5
X13.575Y-4.25
X13.575Y-6.5
T3
X5.875Y-6.775
X7.6562Y-6.775
X8.5938Y-6.775
X10.375Y-6.775
T4
X2.875Y-3.5
X2.875Y-4.25
X2.875Y-6.5
X2.9688Y-5.0
X3.0625Y-5.75
X3.1562Y-5.0
X3.625Y-3.5
X3.625Y-4.25
X3.625Y-6.5
X4.0Y-5.75
X4.1875Y-5.0
X4.375Y-3.5
X4.375Y-4.25
X4.375Y-6.5
X4.75Y-5.75
X4.9375Y-5.0
X5.125Y-3.5
X5.125Y-4.25
X5.125Y-6.5
X5.5Y-5.75
X5.6875Y-5.0
X5.875Y-3.5
X5.875Y-4.25
X5.875Y-6.175
X5.9688Y-6.5
X6.25Y-5.75
X6.4375Y-5.0
X6.625Y-3.5
X6.625Y-4.25
X6.9062Y-6.5
X7.0Y-5.75
X7.1875Y-5.0
X7.375Y-3.5
X7.375Y-4.25
X7.6562Y-6.175
X7.75Y-5.75
X7.75Y-6.5
X8.125Y-3.5
X8.125Y-4.25
X8.125Y-5.0
X8.125Y-6.5
X8.5Y-5.75
X8.5Y-6.5
X8.5938Y-6.175
X8.875Y-3.5
X8.875Y-4.25
X9.0625Y-5.0
X9.25Y-5.75
X9.3438Y-6.5
X9.625Y-3.5
X9.625Y-4.25
X9.8125Y-5.0
X10.0Y-5.75
X10.2812Y-6.5
X10.375Y-3.5
X10.375Y-4.25
X10.375Y-6.175
X10.5625Y-5.0
X10.75Y-5.75
X11.125Y-3.5
X11.125Y-4.25
X11.125Y-6.5
X11.3125Y-5.0
X11.5Y-5.75
X11.875Y-3.5
X11.875Y-4.25
X11.875Y-6.5
X12.0625Y-5.0
X12.25Y-5.75
X12.625Y-3.5
X12.625Y-4.25
X12.625Y-6.5
X12.9062Y-5.0
X13.0938Y-4.9975
X13.1875Y-5.75
X13.375Y-3.5
X13.375Y-4.25
X13.375Y-6.5
M30
