%TF.GenerationSoftware,KiCad,Pcbnew,9.0.4*%
%TF.CreationDate,2026-01-15T07:46:28+01:00*%
%TF.ProjectId,tsuka60-pro,7473756b-6136-4302-9d70-726f2e6b6963,rev?*%
%TF.SameCoordinates,Original*%
%TF.FileFunction,Legend,Top*%
%TF.FilePolarity,Positive*%
%FSLAX46Y46*%
G04 Gerber Fmt 4.6, Leading zero omitted, Abs format (unit mm)*
G04 Created by KiCad (PCBNEW 9.0.4) date 2026-01-15 07:46:28*
%MOMM*%
%LPD*%
G01*
G04 APERTURE LIST*
%ADD10C,0.150000*%
%ADD11C,2.500000*%
%ADD12C,3.048000*%
%ADD13C,3.987800*%
%ADD14C,1.750000*%
%ADD15C,3.300000*%
%ADD16C,0.650000*%
%ADD17O,1.000000X1.600000*%
%ADD18O,1.000000X2.100000*%
%ADD19R,1.700000X1.700000*%
%ADD20O,1.700000X1.700000*%
G04 APERTURE END LIST*
D10*
X119888095Y-95429819D02*
X119888095Y-94429819D01*
X119888095Y-94906009D02*
X120459523Y-94906009D01*
X120459523Y-95429819D02*
X120459523Y-94429819D01*
X121459523Y-95429819D02*
X120888095Y-95429819D01*
X121173809Y-95429819D02*
X121173809Y-94429819D01*
X121173809Y-94429819D02*
X121078571Y-94572676D01*
X121078571Y-94572676D02*
X120983333Y-94667914D01*
X120983333Y-94667914D02*
X120888095Y-94715533D01*
X205613095Y-95429819D02*
X205613095Y-94429819D01*
X205613095Y-94906009D02*
X206184523Y-94906009D01*
X206184523Y-95429819D02*
X206184523Y-94429819D01*
X206613095Y-94525057D02*
X206660714Y-94477438D01*
X206660714Y-94477438D02*
X206755952Y-94429819D01*
X206755952Y-94429819D02*
X206994047Y-94429819D01*
X206994047Y-94429819D02*
X207089285Y-94477438D01*
X207089285Y-94477438D02*
X207136904Y-94525057D01*
X207136904Y-94525057D02*
X207184523Y-94620295D01*
X207184523Y-94620295D02*
X207184523Y-94715533D01*
X207184523Y-94715533D02*
X207136904Y-94858390D01*
X207136904Y-94858390D02*
X206565476Y-95429819D01*
X206565476Y-95429819D02*
X207184523Y-95429819D01*
X205613095Y-152579819D02*
X205613095Y-151579819D01*
X205613095Y-152056009D02*
X206184523Y-152056009D01*
X206184523Y-152579819D02*
X206184523Y-151579819D01*
X207136904Y-151579819D02*
X206660714Y-151579819D01*
X206660714Y-151579819D02*
X206613095Y-152056009D01*
X206613095Y-152056009D02*
X206660714Y-152008390D01*
X206660714Y-152008390D02*
X206755952Y-151960771D01*
X206755952Y-151960771D02*
X206994047Y-151960771D01*
X206994047Y-151960771D02*
X207089285Y-152008390D01*
X207089285Y-152008390D02*
X207136904Y-152056009D01*
X207136904Y-152056009D02*
X207184523Y-152151247D01*
X207184523Y-152151247D02*
X207184523Y-152389342D01*
X207184523Y-152389342D02*
X207136904Y-152484580D01*
X207136904Y-152484580D02*
X207089285Y-152532200D01*
X207089285Y-152532200D02*
X206994047Y-152579819D01*
X206994047Y-152579819D02*
X206755952Y-152579819D01*
X206755952Y-152579819D02*
X206660714Y-152532200D01*
X206660714Y-152532200D02*
X206613095Y-152484580D01*
X291338095Y-152579819D02*
X291338095Y-151579819D01*
X291338095Y-152056009D02*
X291909523Y-152056009D01*
X291909523Y-152579819D02*
X291909523Y-151579819D01*
X292814285Y-151579819D02*
X292623809Y-151579819D01*
X292623809Y-151579819D02*
X292528571Y-151627438D01*
X292528571Y-151627438D02*
X292480952Y-151675057D01*
X292480952Y-151675057D02*
X292385714Y-151817914D01*
X292385714Y-151817914D02*
X292338095Y-152008390D01*
X292338095Y-152008390D02*
X292338095Y-152389342D01*
X292338095Y-152389342D02*
X292385714Y-152484580D01*
X292385714Y-152484580D02*
X292433333Y-152532200D01*
X292433333Y-152532200D02*
X292528571Y-152579819D01*
X292528571Y-152579819D02*
X292719047Y-152579819D01*
X292719047Y-152579819D02*
X292814285Y-152532200D01*
X292814285Y-152532200D02*
X292861904Y-152484580D01*
X292861904Y-152484580D02*
X292909523Y-152389342D01*
X292909523Y-152389342D02*
X292909523Y-152151247D01*
X292909523Y-152151247D02*
X292861904Y-152056009D01*
X292861904Y-152056009D02*
X292814285Y-152008390D01*
X292814285Y-152008390D02*
X292719047Y-151960771D01*
X292719047Y-151960771D02*
X292528571Y-151960771D01*
X292528571Y-151960771D02*
X292433333Y-152008390D01*
X292433333Y-152008390D02*
X292385714Y-152056009D01*
X292385714Y-152056009D02*
X292338095Y-152151247D01*
X119888095Y-152579819D02*
X119888095Y-151579819D01*
X119888095Y-152056009D02*
X120459523Y-152056009D01*
X120459523Y-152579819D02*
X120459523Y-151579819D01*
X121364285Y-151913152D02*
X121364285Y-152579819D01*
X121126190Y-151532200D02*
X120888095Y-152246485D01*
X120888095Y-152246485D02*
X121507142Y-152246485D01*
X291338095Y-95429819D02*
X291338095Y-94429819D01*
X291338095Y-94906009D02*
X291909523Y-94906009D01*
X291909523Y-95429819D02*
X291909523Y-94429819D01*
X292290476Y-94429819D02*
X292909523Y-94429819D01*
X292909523Y-94429819D02*
X292576190Y-94810771D01*
X292576190Y-94810771D02*
X292719047Y-94810771D01*
X292719047Y-94810771D02*
X292814285Y-94858390D01*
X292814285Y-94858390D02*
X292861904Y-94906009D01*
X292861904Y-94906009D02*
X292909523Y-95001247D01*
X292909523Y-95001247D02*
X292909523Y-95239342D01*
X292909523Y-95239342D02*
X292861904Y-95334580D01*
X292861904Y-95334580D02*
X292814285Y-95382200D01*
X292814285Y-95382200D02*
X292719047Y-95429819D01*
X292719047Y-95429819D02*
X292433333Y-95429819D01*
X292433333Y-95429819D02*
X292338095Y-95382200D01*
X292338095Y-95382200D02*
X292290476Y-95334580D01*
%LPC*%
D11*
%TO.C,H1*%
X120650000Y-98425000D03*
%TD*%
%TO.C,H2*%
X206375000Y-98425000D03*
%TD*%
%TO.C,H5*%
X206375000Y-155575000D03*
%TD*%
D12*
%TO.C,S1*%
X263525000Y-172085000D03*
D13*
X263525000Y-156845000D03*
D12*
X149225000Y-172085000D03*
D13*
X149225000Y-156845000D03*
%TD*%
D11*
%TO.C,H6*%
X292100000Y-155575000D03*
%TD*%
%TO.C,H4*%
X120650000Y-155575000D03*
%TD*%
D12*
%TO.C,S2*%
X218281250Y-172085000D03*
D13*
X218281250Y-156845000D03*
D12*
X194468750Y-172085000D03*
D13*
X194468750Y-156845000D03*
%TD*%
D11*
%TO.C,H3*%
X292100000Y-98425000D03*
%TD*%
D14*
%TO.C,MX56*%
X278130000Y-146050000D03*
D13*
X273050000Y-146050000D03*
D14*
X267970000Y-146050000D03*
D15*
X269240000Y-143510000D03*
X275590000Y-140970000D03*
%TD*%
D14*
%TO.C,MX73*%
X306705000Y-165100000D03*
D13*
X301625000Y-165100000D03*
D14*
X296545000Y-165100000D03*
D15*
X297815000Y-162560000D03*
X304165000Y-160020000D03*
%TD*%
D14*
%TO.C,MX39*%
X235267500Y-127000000D03*
D13*
X230187500Y-127000000D03*
D14*
X225107500Y-127000000D03*
D15*
X226377500Y-124460000D03*
X232727500Y-121920000D03*
%TD*%
D14*
%TO.C,MX19*%
X135255000Y-107950000D03*
D13*
X130175000Y-107950000D03*
D14*
X125095000Y-107950000D03*
D15*
X126365000Y-105410000D03*
X132715000Y-102870000D03*
%TD*%
D14*
%TO.C,MX5*%
X154305000Y-88900000D03*
D13*
X149225000Y-88900000D03*
D14*
X144145000Y-88900000D03*
D15*
X145415000Y-86360000D03*
X151765000Y-83820000D03*
%TD*%
D14*
%TO.C,MX16*%
X78105000Y-107950000D03*
D13*
X73025000Y-107950000D03*
D14*
X67945000Y-107950000D03*
D15*
X69215000Y-105410000D03*
X75565000Y-102870000D03*
%TD*%
D14*
%TO.C,MX51*%
X163830000Y-146050000D03*
D13*
X158750000Y-146050000D03*
D14*
X153670000Y-146050000D03*
D15*
X154940000Y-143510000D03*
X161290000Y-140970000D03*
%TD*%
D14*
%TO.C,MX40*%
X254317500Y-127000000D03*
D13*
X249237500Y-127000000D03*
D14*
X244157500Y-127000000D03*
D15*
X245427500Y-124460000D03*
X251777500Y-121920000D03*
%TD*%
D14*
%TO.C,MX8*%
X211455000Y-88900000D03*
D13*
X206375000Y-88900000D03*
D14*
X201295000Y-88900000D03*
D15*
X202565000Y-86360000D03*
X208915000Y-83820000D03*
%TD*%
D14*
%TO.C,MX7*%
X192405000Y-88900000D03*
D13*
X187325000Y-88900000D03*
D14*
X182245000Y-88900000D03*
D15*
X183515000Y-86360000D03*
X189865000Y-83820000D03*
%TD*%
D14*
%TO.C,MX26*%
X268605000Y-107950000D03*
D13*
X263525000Y-107950000D03*
D14*
X258445000Y-107950000D03*
D15*
X259715000Y-105410000D03*
X266065000Y-102870000D03*
%TD*%
D14*
%TO.C,MX68*%
X220980000Y-146050000D03*
D13*
X215900000Y-146050000D03*
D14*
X210820000Y-146050000D03*
D15*
X212090000Y-143510000D03*
X218440000Y-140970000D03*
%TD*%
D14*
%TO.C,MX41*%
X273367500Y-127000000D03*
D13*
X268287500Y-127000000D03*
D14*
X263207500Y-127000000D03*
D15*
X264477500Y-124460000D03*
X270827500Y-121920000D03*
%TD*%
D14*
%TO.C,MX48*%
X106680000Y-146050000D03*
D13*
X101600000Y-146050000D03*
D14*
X96520000Y-146050000D03*
D15*
X97790000Y-143510000D03*
X104140000Y-140970000D03*
%TD*%
D14*
%TO.C,MX65*%
X156686250Y-165100000D03*
D13*
X151606250Y-165100000D03*
D14*
X146526250Y-165100000D03*
D15*
X147796250Y-162560000D03*
X154146250Y-160020000D03*
%TD*%
D14*
%TO.C,MX22*%
X192405000Y-107950000D03*
D13*
X187325000Y-107950000D03*
D14*
X182245000Y-107950000D03*
D15*
X183515000Y-105410000D03*
X189865000Y-102870000D03*
%TD*%
D14*
%TO.C,MX69*%
X220980000Y-165100000D03*
D13*
X215900000Y-165100000D03*
D14*
X210820000Y-165100000D03*
D15*
X212090000Y-162560000D03*
X218440000Y-160020000D03*
%TD*%
D14*
%TO.C,MX35*%
X149542500Y-127000000D03*
D13*
X144462500Y-127000000D03*
D14*
X139382500Y-127000000D03*
D15*
X140652500Y-124460000D03*
X147002500Y-121920000D03*
%TD*%
D14*
%TO.C,MX32*%
X75088750Y-127000000D03*
D13*
X80168750Y-127000000D03*
D14*
X85248750Y-127000000D03*
D15*
X83978750Y-129540000D03*
X77628750Y-132080000D03*
%TD*%
D14*
%TO.C,MX2*%
X86995000Y-88900000D03*
D13*
X92075000Y-88900000D03*
D14*
X97155000Y-88900000D03*
D15*
X95885000Y-91440000D03*
X89535000Y-93980000D03*
%TD*%
D14*
%TO.C,MX66*%
X180498750Y-165100000D03*
D13*
X175418750Y-165100000D03*
D14*
X170338750Y-165100000D03*
D15*
X171608750Y-162560000D03*
X177958750Y-160020000D03*
%TD*%
D14*
%TO.C,MX14*%
X325755000Y-88900000D03*
D13*
X320675000Y-88900000D03*
D14*
X315595000Y-88900000D03*
D15*
X316865000Y-86360000D03*
X323215000Y-83820000D03*
%TD*%
D14*
%TO.C,MX67*%
X201930000Y-165100000D03*
D13*
X196850000Y-165100000D03*
D14*
X191770000Y-165100000D03*
D15*
X193040000Y-162560000D03*
X199390000Y-160020000D03*
%TD*%
D14*
%TO.C,MX54*%
X240030000Y-146050000D03*
D13*
X234950000Y-146050000D03*
D14*
X229870000Y-146050000D03*
D15*
X231140000Y-143510000D03*
X237490000Y-140970000D03*
%TD*%
D14*
%TO.C,MX10*%
X249555000Y-88900000D03*
D13*
X244475000Y-88900000D03*
D14*
X239395000Y-88900000D03*
D15*
X240665000Y-86360000D03*
X247015000Y-83820000D03*
%TD*%
D14*
%TO.C,MX20*%
X154305000Y-107950000D03*
D13*
X149225000Y-107950000D03*
D14*
X144145000Y-107950000D03*
D15*
X145415000Y-105410000D03*
X151765000Y-102870000D03*
%TD*%
D14*
%TO.C,MX32_2*%
X80486250Y-127000000D03*
D13*
X75406250Y-127000000D03*
D14*
X70326250Y-127000000D03*
D15*
X71596250Y-124460000D03*
X77946250Y-121920000D03*
%TD*%
D14*
%TO.C,MX42*%
X292417500Y-127000000D03*
D13*
X287337500Y-127000000D03*
D14*
X282257500Y-127000000D03*
D15*
X283527500Y-124460000D03*
X289877500Y-121920000D03*
%TD*%
D14*
%TO.C,MX24*%
X230505000Y-107950000D03*
D13*
X225425000Y-107950000D03*
D14*
X220345000Y-107950000D03*
D15*
X221615000Y-105410000D03*
X227965000Y-102870000D03*
%TD*%
D14*
%TO.C,MX12*%
X287655000Y-88900000D03*
D13*
X282575000Y-88900000D03*
D14*
X277495000Y-88900000D03*
D15*
X278765000Y-86360000D03*
X285115000Y-83820000D03*
%TD*%
D16*
%TO.C,J1*%
X79210000Y-84840000D03*
X84990000Y-84840000D03*
D17*
X77780000Y-81190000D03*
D18*
X77780000Y-85370000D03*
D17*
X86420000Y-81190000D03*
D18*
X86420000Y-85370000D03*
%TD*%
D14*
%TO.C,MX15*%
X344805000Y-88900000D03*
D13*
X339725000Y-88900000D03*
D14*
X334645000Y-88900000D03*
D15*
X335915000Y-86360000D03*
X342265000Y-83820000D03*
%TD*%
D14*
%TO.C,MX50*%
X144780000Y-146050000D03*
D13*
X139700000Y-146050000D03*
D14*
X134620000Y-146050000D03*
D15*
X135890000Y-143510000D03*
X142240000Y-140970000D03*
%TD*%
D14*
%TO.C,MX1*%
X67945000Y-88900000D03*
D13*
X73025000Y-88900000D03*
D14*
X78105000Y-88900000D03*
D15*
X76835000Y-91440000D03*
X70485000Y-93980000D03*
%TD*%
D14*
%TO.C,MX71*%
X266223750Y-165100000D03*
D13*
X261143750Y-165100000D03*
D14*
X256063750Y-165100000D03*
D15*
X257333750Y-162560000D03*
X263683750Y-160020000D03*
%TD*%
D14*
%TO.C,MX29*%
X325755000Y-107950000D03*
D13*
X320675000Y-107950000D03*
D14*
X315595000Y-107950000D03*
D15*
X316865000Y-105410000D03*
X323215000Y-102870000D03*
%TD*%
D14*
%TO.C,MX57*%
X297180000Y-146050000D03*
D13*
X292100000Y-146050000D03*
D14*
X287020000Y-146050000D03*
D15*
X288290000Y-143510000D03*
X294640000Y-140970000D03*
%TD*%
D14*
%TO.C,MX18*%
X116205000Y-107950000D03*
D13*
X111125000Y-107950000D03*
D14*
X106045000Y-107950000D03*
D15*
X107315000Y-105410000D03*
X113665000Y-102870000D03*
%TD*%
D14*
%TO.C,MX44*%
X327501250Y-126937500D03*
D13*
X332581250Y-126937500D03*
D14*
X337661250Y-126937500D03*
D15*
X336391250Y-129477500D03*
X330041250Y-132017500D03*
%TD*%
D14*
%TO.C,MX21*%
X173355000Y-107950000D03*
D13*
X168275000Y-107950000D03*
D14*
X163195000Y-107950000D03*
D15*
X164465000Y-105410000D03*
X170815000Y-102870000D03*
%TD*%
D14*
%TO.C,MX59*%
X340042500Y-146050000D03*
D13*
X334962500Y-146050000D03*
D14*
X329882500Y-146050000D03*
D15*
X331152500Y-143510000D03*
X337502500Y-140970000D03*
%TD*%
D14*
%TO.C,MX43*%
X311467500Y-127000000D03*
D13*
X306387500Y-127000000D03*
D14*
X301307500Y-127000000D03*
D15*
X302577500Y-124460000D03*
X308927500Y-121920000D03*
%TD*%
D19*
%TO.C,J3*%
X141128750Y-97790000D03*
D20*
X143668750Y-97790000D03*
X141128750Y-95250000D03*
X143668750Y-95250000D03*
X141128750Y-92710000D03*
X143668750Y-92710000D03*
%TD*%
D14*
%TO.C,MX75*%
X344805000Y-165100000D03*
D13*
X339725000Y-165100000D03*
D14*
X334645000Y-165100000D03*
D15*
X335915000Y-162560000D03*
X342265000Y-160020000D03*
%TD*%
D14*
%TO.C,MX38*%
X211455000Y-127000000D03*
D13*
X206375000Y-127000000D03*
D14*
X201295000Y-127000000D03*
D15*
X202565000Y-124460000D03*
X208915000Y-121920000D03*
%TD*%
D14*
%TO.C,MX36*%
X168592500Y-127000000D03*
D13*
X163512500Y-127000000D03*
D14*
X158432500Y-127000000D03*
D15*
X159702500Y-124460000D03*
X166052500Y-121920000D03*
%TD*%
D14*
%TO.C,MX11*%
X268605000Y-88900000D03*
D13*
X263525000Y-88900000D03*
D14*
X258445000Y-88900000D03*
D15*
X259715000Y-86360000D03*
X266065000Y-83820000D03*
%TD*%
D14*
%TO.C,MX61*%
X78105000Y-165100000D03*
D13*
X73025000Y-165100000D03*
D14*
X67945000Y-165100000D03*
D15*
X69215000Y-162560000D03*
X75565000Y-160020000D03*
%TD*%
D14*
%TO.C,MX27*%
X287655000Y-107950000D03*
D13*
X282575000Y-107950000D03*
D14*
X277495000Y-107950000D03*
D15*
X278765000Y-105410000D03*
X285115000Y-102870000D03*
%TD*%
D14*
%TO.C,MX47*%
X82867500Y-146050000D03*
D13*
X77787500Y-146050000D03*
D14*
X72707500Y-146050000D03*
D15*
X73977500Y-143510000D03*
X80327500Y-140970000D03*
%TD*%
D14*
%TO.C,MX3*%
X116205000Y-88900000D03*
D13*
X111125000Y-88900000D03*
D14*
X106045000Y-88900000D03*
D15*
X107315000Y-86360000D03*
X113665000Y-83820000D03*
%TD*%
D14*
%TO.C,MX33*%
X111442500Y-127000000D03*
D13*
X106362500Y-127000000D03*
D14*
X101282500Y-127000000D03*
D15*
X102552500Y-124460000D03*
X108902500Y-121920000D03*
%TD*%
D14*
%TO.C,MX49*%
X125730000Y-146050000D03*
D13*
X120650000Y-146050000D03*
D14*
X115570000Y-146050000D03*
D15*
X116840000Y-143510000D03*
X123190000Y-140970000D03*
%TD*%
D14*
%TO.C,MX64*%
X135255000Y-165100000D03*
D13*
X130175000Y-165100000D03*
D14*
X125095000Y-165100000D03*
D15*
X126365000Y-162560000D03*
X132715000Y-160020000D03*
%TD*%
D14*
%TO.C,MX23*%
X211455000Y-107950000D03*
D13*
X206375000Y-107950000D03*
D14*
X201295000Y-107950000D03*
D15*
X202565000Y-105410000D03*
X208915000Y-102870000D03*
%TD*%
D14*
%TO.C,MX13*%
X306705000Y-88900000D03*
D13*
X301625000Y-88900000D03*
D14*
X296545000Y-88900000D03*
D15*
X297815000Y-86360000D03*
X304165000Y-83820000D03*
%TD*%
D14*
%TO.C,MX9*%
X230505000Y-88900000D03*
D13*
X225425000Y-88900000D03*
D14*
X220345000Y-88900000D03*
D15*
X221615000Y-86360000D03*
X227965000Y-83820000D03*
%TD*%
D14*
%TO.C,MX34*%
X130492500Y-127000000D03*
D13*
X125412500Y-127000000D03*
D14*
X120332500Y-127000000D03*
D15*
X121602500Y-124460000D03*
X127952500Y-121920000D03*
%TD*%
D14*
%TO.C,MX63*%
X116205000Y-165100000D03*
D13*
X111125000Y-165100000D03*
D14*
X106045000Y-165100000D03*
D15*
X107315000Y-162560000D03*
X113665000Y-160020000D03*
%TD*%
D14*
%TO.C,MX53*%
X201930000Y-146050000D03*
D13*
X196850000Y-146050000D03*
D14*
X191770000Y-146050000D03*
D15*
X193040000Y-143510000D03*
X199390000Y-140970000D03*
%TD*%
D14*
%TO.C,MX74*%
X325755000Y-165100000D03*
D13*
X320675000Y-165100000D03*
D14*
X315595000Y-165100000D03*
D15*
X316865000Y-162560000D03*
X323215000Y-160020000D03*
%TD*%
D14*
%TO.C,MX4*%
X135255000Y-88900000D03*
D13*
X130175000Y-88900000D03*
D14*
X125095000Y-88900000D03*
D15*
X126365000Y-86360000D03*
X132715000Y-83820000D03*
%TD*%
D14*
%TO.C,MX52*%
X182880000Y-146050000D03*
D13*
X177800000Y-146050000D03*
D14*
X172720000Y-146050000D03*
D15*
X173990000Y-143510000D03*
X180340000Y-140970000D03*
%TD*%
D14*
%TO.C,MX55*%
X259080000Y-146050000D03*
D13*
X254000000Y-146050000D03*
D14*
X248920000Y-146050000D03*
D15*
X250190000Y-143510000D03*
X256540000Y-140970000D03*
%TD*%
D14*
%TO.C,MX25*%
X249555000Y-107950000D03*
D13*
X244475000Y-107950000D03*
D14*
X239395000Y-107950000D03*
D15*
X240665000Y-105410000D03*
X247015000Y-102870000D03*
%TD*%
D14*
%TO.C,MX72*%
X287655000Y-165100000D03*
D13*
X282575000Y-165100000D03*
D14*
X277495000Y-165100000D03*
D15*
X278765000Y-162560000D03*
X285115000Y-160020000D03*
%TD*%
D14*
%TO.C,MX30*%
X344805000Y-107950000D03*
D13*
X339725000Y-107950000D03*
D14*
X334645000Y-107950000D03*
D15*
X335915000Y-105410000D03*
X342265000Y-102870000D03*
%TD*%
D14*
%TO.C,MX70_2*%
X201295000Y-165100000D03*
D13*
X206375000Y-165100000D03*
D14*
X211455000Y-165100000D03*
D15*
X210185000Y-167640000D03*
X203835000Y-170180000D03*
%TD*%
D14*
%TO.C,MX58*%
X316230000Y-146050000D03*
D13*
X311150000Y-146050000D03*
D14*
X306070000Y-146050000D03*
D15*
X307340000Y-143510000D03*
X313690000Y-140970000D03*
%TD*%
D14*
%TO.C,MX17*%
X97155000Y-107950000D03*
D13*
X92075000Y-107950000D03*
D14*
X86995000Y-107950000D03*
D15*
X88265000Y-105410000D03*
X94615000Y-102870000D03*
%TD*%
D14*
%TO.C,MX70*%
X242411250Y-165100000D03*
D13*
X237331250Y-165100000D03*
D14*
X232251250Y-165100000D03*
D15*
X233521250Y-162560000D03*
X239871250Y-160020000D03*
%TD*%
D14*
%TO.C,MX28*%
X306705000Y-107950000D03*
D13*
X301625000Y-107950000D03*
D14*
X296545000Y-107950000D03*
D15*
X297815000Y-105410000D03*
X304165000Y-102870000D03*
%TD*%
D14*
%TO.C,MX37*%
X187642500Y-127000000D03*
D13*
X182562500Y-127000000D03*
D14*
X177482500Y-127000000D03*
D15*
X178752500Y-124460000D03*
X185102500Y-121920000D03*
%TD*%
D14*
%TO.C,MX44_2*%
X332898750Y-127000000D03*
D13*
X327818750Y-127000000D03*
D14*
X322738750Y-127000000D03*
D15*
X324008750Y-124460000D03*
X330358750Y-121920000D03*
%TD*%
D14*
%TO.C,MX62*%
X97155000Y-165100000D03*
D13*
X92075000Y-165100000D03*
D14*
X86995000Y-165100000D03*
D15*
X88265000Y-162560000D03*
X94615000Y-160020000D03*
%TD*%
D14*
%TO.C,MX6*%
X173355000Y-88900000D03*
D13*
X168275000Y-88900000D03*
D14*
X163195000Y-88900000D03*
D15*
X164465000Y-86360000D03*
X170815000Y-83820000D03*
%TD*%
%LPD*%
M02*
