%TF.GenerationSoftware,KiCad,Pcbnew,(6.0.8-1)-1*%
%TF.CreationDate,2024-01-21T20:03:50+01:00*%
%TF.ProjectId,tsuka60-pro,7473756b-6136-4302-9d70-726f2e6b6963,rev?*%
%TF.SameCoordinates,Original*%
%TF.FileFunction,Other,Comment*%
%FSLAX46Y46*%
G04 Gerber Fmt 4.6, Leading zero omitted, Abs format (unit mm)*
G04 Created by KiCad (PCBNEW (6.0.8-1)-1) date 2024-01-21 20:03:50*
%MOMM*%
%LPD*%
G01*
G04 APERTURE LIST*
%ADD10C,0.030000*%
G04 APERTURE END LIST*
D10*
%TO.C,SW1*%
X101298214Y-132052976D02*
X101298214Y-131852976D01*
X101412500Y-132052976D02*
X101326785Y-131938690D01*
X101412500Y-131852976D02*
X101298214Y-131967261D01*
X101498214Y-131948214D02*
X101564880Y-131948214D01*
X101593452Y-132052976D02*
X101498214Y-132052976D01*
X101498214Y-131852976D01*
X101593452Y-131852976D01*
X101679166Y-131948214D02*
X101745833Y-131948214D01*
X101774404Y-132052976D02*
X101679166Y-132052976D01*
X101679166Y-131852976D01*
X101774404Y-131852976D01*
X101860119Y-132052976D02*
X101860119Y-131852976D01*
X101936309Y-131852976D01*
X101955357Y-131862500D01*
X101964880Y-131872023D01*
X101974404Y-131891071D01*
X101974404Y-131919642D01*
X101964880Y-131938690D01*
X101955357Y-131948214D01*
X101936309Y-131957738D01*
X101860119Y-131957738D01*
X102060119Y-131976785D02*
X102212500Y-131976785D01*
X102345833Y-131852976D02*
X102383928Y-131852976D01*
X102402976Y-131862500D01*
X102422023Y-131881547D01*
X102431547Y-131919642D01*
X102431547Y-131986309D01*
X102422023Y-132024404D01*
X102402976Y-132043452D01*
X102383928Y-132052976D01*
X102345833Y-132052976D01*
X102326785Y-132043452D01*
X102307738Y-132024404D01*
X102298214Y-131986309D01*
X102298214Y-131919642D01*
X102307738Y-131881547D01*
X102326785Y-131862500D01*
X102345833Y-131852976D01*
X102517261Y-131852976D02*
X102517261Y-132014880D01*
X102526785Y-132033928D01*
X102536309Y-132043452D01*
X102555357Y-132052976D01*
X102593452Y-132052976D01*
X102612500Y-132043452D01*
X102622023Y-132033928D01*
X102631547Y-132014880D01*
X102631547Y-131852976D01*
X102698214Y-131852976D02*
X102812500Y-131852976D01*
X102755357Y-132052976D02*
X102755357Y-131852976D01*
X103012500Y-131852976D02*
X103145833Y-131852976D01*
X103012500Y-132052976D01*
X103145833Y-132052976D01*
X103260119Y-131852976D02*
X103298214Y-131852976D01*
X103317261Y-131862500D01*
X103336309Y-131881547D01*
X103345833Y-131919642D01*
X103345833Y-131986309D01*
X103336309Y-132024404D01*
X103317261Y-132043452D01*
X103298214Y-132052976D01*
X103260119Y-132052976D01*
X103241071Y-132043452D01*
X103222023Y-132024404D01*
X103212500Y-131986309D01*
X103212500Y-131919642D01*
X103222023Y-131881547D01*
X103241071Y-131862500D01*
X103260119Y-131852976D01*
X103431547Y-132052976D02*
X103431547Y-131852976D01*
X103545833Y-132052976D01*
X103545833Y-131852976D01*
X103641071Y-131948214D02*
X103707738Y-131948214D01*
X103736309Y-132052976D02*
X103641071Y-132052976D01*
X103641071Y-131852976D01*
X103736309Y-131852976D01*
X96298214Y-132052976D02*
X96298214Y-131852976D01*
X96412500Y-132052976D02*
X96326785Y-131938690D01*
X96412500Y-131852976D02*
X96298214Y-131967261D01*
X96498214Y-131948214D02*
X96564880Y-131948214D01*
X96593452Y-132052976D02*
X96498214Y-132052976D01*
X96498214Y-131852976D01*
X96593452Y-131852976D01*
X96679166Y-131948214D02*
X96745833Y-131948214D01*
X96774404Y-132052976D02*
X96679166Y-132052976D01*
X96679166Y-131852976D01*
X96774404Y-131852976D01*
X96860119Y-132052976D02*
X96860119Y-131852976D01*
X96936309Y-131852976D01*
X96955357Y-131862500D01*
X96964880Y-131872023D01*
X96974404Y-131891071D01*
X96974404Y-131919642D01*
X96964880Y-131938690D01*
X96955357Y-131948214D01*
X96936309Y-131957738D01*
X96860119Y-131957738D01*
X97060119Y-131976785D02*
X97212500Y-131976785D01*
X97345833Y-131852976D02*
X97383928Y-131852976D01*
X97402976Y-131862500D01*
X97422023Y-131881547D01*
X97431547Y-131919642D01*
X97431547Y-131986309D01*
X97422023Y-132024404D01*
X97402976Y-132043452D01*
X97383928Y-132052976D01*
X97345833Y-132052976D01*
X97326785Y-132043452D01*
X97307738Y-132024404D01*
X97298214Y-131986309D01*
X97298214Y-131919642D01*
X97307738Y-131881547D01*
X97326785Y-131862500D01*
X97345833Y-131852976D01*
X97517261Y-131852976D02*
X97517261Y-132014880D01*
X97526785Y-132033928D01*
X97536309Y-132043452D01*
X97555357Y-132052976D01*
X97593452Y-132052976D01*
X97612500Y-132043452D01*
X97622023Y-132033928D01*
X97631547Y-132014880D01*
X97631547Y-131852976D01*
X97698214Y-131852976D02*
X97812500Y-131852976D01*
X97755357Y-132052976D02*
X97755357Y-131852976D01*
X98012500Y-131852976D02*
X98145833Y-131852976D01*
X98012500Y-132052976D01*
X98145833Y-132052976D01*
X98260119Y-131852976D02*
X98298214Y-131852976D01*
X98317261Y-131862500D01*
X98336309Y-131881547D01*
X98345833Y-131919642D01*
X98345833Y-131986309D01*
X98336309Y-132024404D01*
X98317261Y-132043452D01*
X98298214Y-132052976D01*
X98260119Y-132052976D01*
X98241071Y-132043452D01*
X98222023Y-132024404D01*
X98212500Y-131986309D01*
X98212500Y-131919642D01*
X98222023Y-131881547D01*
X98241071Y-131862500D01*
X98260119Y-131852976D01*
X98431547Y-132052976D02*
X98431547Y-131852976D01*
X98545833Y-132052976D01*
X98545833Y-131852976D01*
X98641071Y-131948214D02*
X98707738Y-131948214D01*
X98736309Y-132052976D02*
X98641071Y-132052976D01*
X98641071Y-131852976D01*
X98736309Y-131852976D01*
X96431547Y-131652976D02*
X96431547Y-131452976D01*
X96545833Y-131652976D01*
X96545833Y-131452976D01*
X96669642Y-131652976D02*
X96650595Y-131643452D01*
X96641071Y-131633928D01*
X96631547Y-131614880D01*
X96631547Y-131557738D01*
X96641071Y-131538690D01*
X96650595Y-131529166D01*
X96669642Y-131519642D01*
X96698214Y-131519642D01*
X96717261Y-131529166D01*
X96726785Y-131538690D01*
X96736309Y-131557738D01*
X96736309Y-131614880D01*
X96726785Y-131633928D01*
X96717261Y-131643452D01*
X96698214Y-131652976D01*
X96669642Y-131652976D01*
X97041071Y-131548214D02*
X96974404Y-131548214D01*
X96974404Y-131652976D02*
X96974404Y-131452976D01*
X97069642Y-131452976D01*
X97145833Y-131633928D02*
X97155357Y-131643452D01*
X97145833Y-131652976D01*
X97136309Y-131643452D01*
X97145833Y-131633928D01*
X97145833Y-131652976D01*
X97355357Y-131633928D02*
X97345833Y-131643452D01*
X97317261Y-131652976D01*
X97298214Y-131652976D01*
X97269642Y-131643452D01*
X97250595Y-131624404D01*
X97241071Y-131605357D01*
X97231547Y-131567261D01*
X97231547Y-131538690D01*
X97241071Y-131500595D01*
X97250595Y-131481547D01*
X97269642Y-131462500D01*
X97298214Y-131452976D01*
X97317261Y-131452976D01*
X97345833Y-131462500D01*
X97355357Y-131472023D01*
X97526785Y-131519642D02*
X97526785Y-131652976D01*
X97441071Y-131519642D02*
X97441071Y-131624404D01*
X97450595Y-131643452D01*
X97469642Y-131652976D01*
X97498214Y-131652976D01*
X97517261Y-131643452D01*
X97526785Y-131633928D01*
X97745833Y-131519642D02*
X97822023Y-131519642D01*
X97774404Y-131452976D02*
X97774404Y-131624404D01*
X97783928Y-131643452D01*
X97802976Y-131652976D01*
X97822023Y-131652976D01*
X97888690Y-131652976D02*
X97888690Y-131519642D01*
X97888690Y-131557738D02*
X97898214Y-131538690D01*
X97907738Y-131529166D01*
X97926785Y-131519642D01*
X97945833Y-131519642D01*
X98098214Y-131652976D02*
X98098214Y-131548214D01*
X98088690Y-131529166D01*
X98069642Y-131519642D01*
X98031547Y-131519642D01*
X98012500Y-131529166D01*
X98098214Y-131643452D02*
X98079166Y-131652976D01*
X98031547Y-131652976D01*
X98012500Y-131643452D01*
X98002976Y-131624404D01*
X98002976Y-131605357D01*
X98012500Y-131586309D01*
X98031547Y-131576785D01*
X98079166Y-131576785D01*
X98098214Y-131567261D01*
X98279166Y-131643452D02*
X98260119Y-131652976D01*
X98222023Y-131652976D01*
X98202976Y-131643452D01*
X98193452Y-131633928D01*
X98183928Y-131614880D01*
X98183928Y-131557738D01*
X98193452Y-131538690D01*
X98202976Y-131529166D01*
X98222023Y-131519642D01*
X98260119Y-131519642D01*
X98279166Y-131529166D01*
X98364880Y-131652976D02*
X98364880Y-131452976D01*
X98383928Y-131576785D02*
X98441071Y-131652976D01*
X98441071Y-131519642D02*
X98364880Y-131595833D01*
X98517261Y-131643452D02*
X98536309Y-131652976D01*
X98574404Y-131652976D01*
X98593452Y-131643452D01*
X98602976Y-131624404D01*
X98602976Y-131614880D01*
X98593452Y-131595833D01*
X98574404Y-131586309D01*
X98545833Y-131586309D01*
X98526785Y-131576785D01*
X98517261Y-131557738D01*
X98517261Y-131548214D01*
X98526785Y-131529166D01*
X98545833Y-131519642D01*
X98574404Y-131519642D01*
X98593452Y-131529166D01*
X101431547Y-131652976D02*
X101431547Y-131452976D01*
X101545833Y-131652976D01*
X101545833Y-131452976D01*
X101669642Y-131652976D02*
X101650595Y-131643452D01*
X101641071Y-131633928D01*
X101631547Y-131614880D01*
X101631547Y-131557738D01*
X101641071Y-131538690D01*
X101650595Y-131529166D01*
X101669642Y-131519642D01*
X101698214Y-131519642D01*
X101717261Y-131529166D01*
X101726785Y-131538690D01*
X101736309Y-131557738D01*
X101736309Y-131614880D01*
X101726785Y-131633928D01*
X101717261Y-131643452D01*
X101698214Y-131652976D01*
X101669642Y-131652976D01*
X102041071Y-131548214D02*
X101974404Y-131548214D01*
X101974404Y-131652976D02*
X101974404Y-131452976D01*
X102069642Y-131452976D01*
X102145833Y-131633928D02*
X102155357Y-131643452D01*
X102145833Y-131652976D01*
X102136309Y-131643452D01*
X102145833Y-131633928D01*
X102145833Y-131652976D01*
X102355357Y-131633928D02*
X102345833Y-131643452D01*
X102317261Y-131652976D01*
X102298214Y-131652976D01*
X102269642Y-131643452D01*
X102250595Y-131624404D01*
X102241071Y-131605357D01*
X102231547Y-131567261D01*
X102231547Y-131538690D01*
X102241071Y-131500595D01*
X102250595Y-131481547D01*
X102269642Y-131462500D01*
X102298214Y-131452976D01*
X102317261Y-131452976D01*
X102345833Y-131462500D01*
X102355357Y-131472023D01*
X102526785Y-131519642D02*
X102526785Y-131652976D01*
X102441071Y-131519642D02*
X102441071Y-131624404D01*
X102450595Y-131643452D01*
X102469642Y-131652976D01*
X102498214Y-131652976D01*
X102517261Y-131643452D01*
X102526785Y-131633928D01*
X102745833Y-131519642D02*
X102822023Y-131519642D01*
X102774404Y-131452976D02*
X102774404Y-131624404D01*
X102783928Y-131643452D01*
X102802976Y-131652976D01*
X102822023Y-131652976D01*
X102888690Y-131652976D02*
X102888690Y-131519642D01*
X102888690Y-131557738D02*
X102898214Y-131538690D01*
X102907738Y-131529166D01*
X102926785Y-131519642D01*
X102945833Y-131519642D01*
X103098214Y-131652976D02*
X103098214Y-131548214D01*
X103088690Y-131529166D01*
X103069642Y-131519642D01*
X103031547Y-131519642D01*
X103012500Y-131529166D01*
X103098214Y-131643452D02*
X103079166Y-131652976D01*
X103031547Y-131652976D01*
X103012500Y-131643452D01*
X103002976Y-131624404D01*
X103002976Y-131605357D01*
X103012500Y-131586309D01*
X103031547Y-131576785D01*
X103079166Y-131576785D01*
X103098214Y-131567261D01*
X103279166Y-131643452D02*
X103260119Y-131652976D01*
X103222023Y-131652976D01*
X103202976Y-131643452D01*
X103193452Y-131633928D01*
X103183928Y-131614880D01*
X103183928Y-131557738D01*
X103193452Y-131538690D01*
X103202976Y-131529166D01*
X103222023Y-131519642D01*
X103260119Y-131519642D01*
X103279166Y-131529166D01*
X103364880Y-131652976D02*
X103364880Y-131452976D01*
X103383928Y-131576785D02*
X103441071Y-131652976D01*
X103441071Y-131519642D02*
X103364880Y-131595833D01*
X103517261Y-131643452D02*
X103536309Y-131652976D01*
X103574404Y-131652976D01*
X103593452Y-131643452D01*
X103602976Y-131624404D01*
X103602976Y-131614880D01*
X103593452Y-131595833D01*
X103574404Y-131586309D01*
X103545833Y-131586309D01*
X103526785Y-131576785D01*
X103517261Y-131557738D01*
X103517261Y-131548214D01*
X103526785Y-131529166D01*
X103545833Y-131519642D01*
X103574404Y-131519642D01*
X103593452Y-131529166D01*
%TD*%
M02*
