M48
; DRILL file {KiCad (6.0.8-1)-1} date 2023 May 19, Friday 20:22:11
; FORMAT={-:-/ absolute / inch / decimal}
; #@! TF.CreationDate,2023-05-19T20:22:11+02:00
; #@! TF.GenerationSoftware,Kicad,Pcbnew,(6.0.8-1)-1
; #@! TF.FileFunction,Plated,1,2,PTH
FMAT,2
INCH
; #@! TA.AperFunction,Plated,PTH,ViaDrill
T1C0.0118
; #@! TA.AperFunction,Plated,PTH,ViaDrill
T2C0.0197
; #@! TA.AperFunction,Plated,PTH,ComponentDrill
T3C0.0236
; #@! TA.AperFunction,Plated,PTH,ComponentDrill
T4C0.1181
%
G90
G05
T1
X2.9469Y-3.4213
X3.1841Y-5.1329
X3.187Y-3.4823
X3.202Y-5.3681
X3.2067Y-3.9055
X3.2756Y-4.6161
X3.2953Y-5.8701
X3.386Y-4.0136
X3.3956Y-5.061
X3.4193Y-4.0137
X3.4626Y-5.061
X3.4646Y-3.8661
X3.4714Y-3.9616
X3.4843Y-3.9154
X3.4843Y-5.437
X3.5492Y-4.5118
X3.5925Y-5.5827
X3.6378Y-3.2972
X3.6417Y-4.3228
X3.6437Y-5.1732
X3.8819Y-5.8169
X3.9469Y-3.2598
T2
X3.2761Y-5.0573
T4
X2.725Y-5.65
X2.725Y-6.4
X2.775Y-3.7
X2.8188Y-4.9
X2.9125Y-4.15
X2.975Y-5.55
X2.975Y-6.3
X3.025Y-3.6
X3.0688Y-4.8
X3.1625Y-4.05
X3.475Y-5.65
X3.475Y-6.4
X3.525Y-3.7
X3.6625Y-4.9
X3.725Y-5.55
X3.725Y-6.3
X3.775Y-3.6
X3.85Y-4.15
X3.9125Y-4.8
X4.1Y-4.05
X4.225Y-3.4
X4.225Y-5.65
X4.225Y-6.4
X4.4125Y-4.9
X4.475Y-3.3
X4.475Y-5.55
X4.475Y-6.3
X4.6Y-4.15
X4.6625Y-4.8
X4.85Y-4.05
X4.975Y-3.4
X4.975Y-5.65
X4.975Y-6.4
X5.1625Y-4.9
X5.225Y-3.3
X5.225Y-5.55
X5.225Y-6.3
X5.35Y-4.15
X5.4125Y-4.8
X5.6Y-4.05
X5.725Y-3.4
X5.725Y-5.65
X5.725Y-6.4
X5.9125Y-4.9
X5.975Y-3.3
X5.975Y-5.55
X5.975Y-6.3
X6.1Y-4.15
X6.1625Y-4.8
X6.35Y-4.05
X6.475Y-3.4
X6.475Y-5.65
X6.6625Y-4.9
X6.725Y-3.3
X6.725Y-5.55
X6.85Y-4.15
X6.85Y-6.4
X6.9125Y-4.8
X7.1Y-4.05
X7.1Y-6.3
X7.225Y-3.4
X7.225Y-5.65
X7.4125Y-4.9
X7.475Y-3.3
X7.475Y-5.55
X7.5562Y-5.2
X7.6Y-4.15
X7.6625Y-4.8
X7.8062Y-5.1
X7.85Y-4.05
X7.975Y-3.4
X7.975Y-5.65
X7.975Y-6.4
X8.225Y-3.3
X8.225Y-5.55
X8.225Y-6.3
X8.35Y-4.15
X8.4437Y-4.9
X8.5875Y-5.2
X8.6Y-4.05
X8.6937Y-4.8
X8.725Y-3.4
X8.725Y-5.65
X8.8375Y-5.1
X8.975Y-3.3
X8.975Y-5.55
X9.1Y-4.15
X9.1Y-6.4
X9.2875Y-4.9
X9.35Y-4.05
X9.35Y-6.3
X9.475Y-3.4
X9.475Y-5.65
X9.5375Y-4.8
X9.725Y-3.3
X9.725Y-5.55
X9.85Y-4.15
X10.0375Y-4.9
X10.1Y-4.05
X10.225Y-3.4
X10.225Y-5.65
X10.225Y-6.4
X10.2875Y-4.8
X10.475Y-3.3
X10.475Y-5.55
X10.475Y-6.3
X10.6Y-4.15
X10.7875Y-4.9
X10.85Y-4.05
X10.975Y-3.4
X10.975Y-5.65
X10.975Y-6.4
X11.0375Y-4.8
X11.225Y-3.3
X11.225Y-5.55
X11.225Y-6.3
X11.35Y-4.15
X11.5375Y-4.9
X11.6Y-4.05
X11.725Y-3.4
X11.725Y-5.65
X11.725Y-6.4
X11.7875Y-4.8
X11.975Y-3.3
X11.975Y-5.55
X11.975Y-6.3
X12.1Y-4.15
X12.2875Y-4.9
X12.35Y-4.05
X12.475Y-3.4
X12.475Y-5.65
X12.475Y-6.4
X12.5375Y-4.8
X12.725Y-3.3
X12.725Y-5.55
X12.725Y-6.3
X13.0375Y-4.15
X13.1312Y-4.9
X13.225Y-3.4
X13.225Y-5.65
X13.225Y-6.4
X13.2875Y-4.05
X13.3812Y-4.8
X13.475Y-3.3
X13.475Y-5.55
X13.475Y-6.3
T3
G00X3.0104Y-3.2263
M15
G01X3.0104Y-3.1849
M16
G05
G00X3.0112Y-3.4074
M15
G01X3.0112Y-3.366
M16
G05
G00X3.4494Y-3.2263
M15
G01X3.4494Y-3.1849
M16
G05
G00X3.4502Y-3.4074
M15
G01X3.4502Y-3.366
M16
G05
T0
M30
