%TF.GenerationSoftware,KiCad,Pcbnew,(6.0.8-1)-1*%
%TF.CreationDate,2024-01-21T20:03:50+01:00*%
%TF.ProjectId,tsuka60-pro,7473756b-6136-4302-9d70-726f2e6b6963,rev?*%
%TF.SameCoordinates,Original*%
%TF.FileFunction,Soldermask,Top*%
%TF.FilePolarity,Negative*%
%FSLAX46Y46*%
G04 Gerber Fmt 4.6, Leading zero omitted, Abs format (unit mm)*
G04 Created by KiCad (PCBNEW (6.0.8-1)-1) date 2024-01-21 20:03:50*
%MOMM*%
%LPD*%
G01*
G04 APERTURE LIST*
%ADD10C,3.987800*%
%ADD11C,3.048000*%
%ADD12C,1.750000*%
%ADD13C,3.300000*%
%ADD14C,0.650000*%
%ADD15O,1.000000X1.600000*%
%ADD16O,1.000000X2.100000*%
G04 APERTURE END LIST*
D10*
%TO.C,S1*%
X149225000Y-156845000D03*
X263525000Y-156845000D03*
D11*
X263525000Y-172085000D03*
X149225000Y-172085000D03*
%TD*%
D12*
%TO.C,MX56*%
X278130000Y-146050000D03*
D10*
X273050000Y-146050000D03*
D12*
X267970000Y-146050000D03*
D13*
X269240000Y-143510000D03*
X275590000Y-140970000D03*
%TD*%
D10*
%TO.C,MX73*%
X301625000Y-165100000D03*
D12*
X296545000Y-165100000D03*
X306705000Y-165100000D03*
D13*
X297815000Y-162560000D03*
X304165000Y-160020000D03*
%TD*%
D12*
%TO.C,MX39*%
X225107500Y-127000000D03*
X235267500Y-127000000D03*
D10*
X230187500Y-127000000D03*
D13*
X226377500Y-124460000D03*
X232727500Y-121920000D03*
%TD*%
D12*
%TO.C,MX19*%
X125095000Y-107950000D03*
X135255000Y-107950000D03*
D10*
X130175000Y-107950000D03*
D13*
X126365000Y-105410000D03*
X132715000Y-102870000D03*
%TD*%
D12*
%TO.C,MX5*%
X144145000Y-88900000D03*
D10*
X149225000Y-88900000D03*
D12*
X154305000Y-88900000D03*
D13*
X145415000Y-86360000D03*
X151765000Y-83820000D03*
%TD*%
D12*
%TO.C,MX16*%
X67945000Y-107950000D03*
X78105000Y-107950000D03*
D10*
X73025000Y-107950000D03*
D13*
X69215000Y-105410000D03*
X75565000Y-102870000D03*
%TD*%
D12*
%TO.C,MX51*%
X153670000Y-146050000D03*
D10*
X158750000Y-146050000D03*
D12*
X163830000Y-146050000D03*
D13*
X154940000Y-143510000D03*
X161290000Y-140970000D03*
%TD*%
D12*
%TO.C,MX40*%
X244157500Y-127000000D03*
D10*
X249237500Y-127000000D03*
D12*
X254317500Y-127000000D03*
D13*
X245427500Y-124460000D03*
X251777500Y-121920000D03*
%TD*%
D12*
%TO.C,MX8*%
X211455000Y-88900000D03*
D10*
X206375000Y-88900000D03*
D12*
X201295000Y-88900000D03*
D13*
X202565000Y-86360000D03*
X208915000Y-83820000D03*
%TD*%
D12*
%TO.C,MX7*%
X182245000Y-88900000D03*
X192405000Y-88900000D03*
D10*
X187325000Y-88900000D03*
D13*
X183515000Y-86360000D03*
X189865000Y-83820000D03*
%TD*%
D12*
%TO.C,MX26*%
X258445000Y-107950000D03*
X268605000Y-107950000D03*
D10*
X263525000Y-107950000D03*
D13*
X259715000Y-105410000D03*
X266065000Y-102870000D03*
%TD*%
D12*
%TO.C,MX68*%
X210820000Y-146050000D03*
D10*
X215900000Y-146050000D03*
D12*
X220980000Y-146050000D03*
D13*
X212090000Y-143510000D03*
X218440000Y-140970000D03*
%TD*%
D12*
%TO.C,MX41*%
X263207500Y-127000000D03*
X273367500Y-127000000D03*
D10*
X268287500Y-127000000D03*
D13*
X264477500Y-124460000D03*
X270827500Y-121920000D03*
%TD*%
D12*
%TO.C,MX48*%
X96520000Y-146050000D03*
D10*
X101600000Y-146050000D03*
D12*
X106680000Y-146050000D03*
D13*
X97790000Y-143510000D03*
X104140000Y-140970000D03*
%TD*%
D12*
%TO.C,MX65*%
X156686250Y-165100000D03*
X146526250Y-165100000D03*
D10*
X151606250Y-165100000D03*
D13*
X147796250Y-162560000D03*
X154146250Y-160020000D03*
%TD*%
D12*
%TO.C,MX22*%
X182245000Y-107950000D03*
D10*
X187325000Y-107950000D03*
D12*
X192405000Y-107950000D03*
D13*
X183515000Y-105410000D03*
X189865000Y-102870000D03*
%TD*%
D12*
%TO.C,MX69*%
X220980000Y-165100000D03*
X210820000Y-165100000D03*
D10*
X215900000Y-165100000D03*
D13*
X212090000Y-162560000D03*
X218440000Y-160020000D03*
%TD*%
D12*
%TO.C,MX35*%
X149542500Y-127000000D03*
X139382500Y-127000000D03*
D10*
X144462500Y-127000000D03*
D13*
X140652500Y-124460000D03*
X147002500Y-121920000D03*
%TD*%
D12*
%TO.C,MX32*%
X85248750Y-127000000D03*
D10*
X80168750Y-127000000D03*
D12*
X75088750Y-127000000D03*
D13*
X83978750Y-129540000D03*
X77628750Y-132080000D03*
%TD*%
D10*
%TO.C,MX2*%
X92075000Y-88900000D03*
D12*
X86995000Y-88900000D03*
X97155000Y-88900000D03*
D13*
X95885000Y-91440000D03*
X89535000Y-93980000D03*
%TD*%
D12*
%TO.C,MX66*%
X180498750Y-165100000D03*
X170338750Y-165100000D03*
D10*
X175418750Y-165100000D03*
D13*
X171608750Y-162560000D03*
X177958750Y-160020000D03*
%TD*%
D12*
%TO.C,MX14*%
X315595000Y-88900000D03*
X325755000Y-88900000D03*
D10*
X320675000Y-88900000D03*
D13*
X316865000Y-86360000D03*
X323215000Y-83820000D03*
%TD*%
D10*
%TO.C,MX67*%
X196850000Y-165100000D03*
D12*
X201930000Y-165100000D03*
X191770000Y-165100000D03*
D13*
X193040000Y-162560000D03*
X199390000Y-160020000D03*
%TD*%
D10*
%TO.C,MX54*%
X234950000Y-146050000D03*
D12*
X240030000Y-146050000D03*
X229870000Y-146050000D03*
D13*
X231140000Y-143510000D03*
X237490000Y-140970000D03*
%TD*%
D12*
%TO.C,MX10*%
X239395000Y-88900000D03*
D10*
X244475000Y-88900000D03*
D12*
X249555000Y-88900000D03*
D13*
X240665000Y-86360000D03*
X247015000Y-83820000D03*
%TD*%
D10*
%TO.C,MX20*%
X149225000Y-107950000D03*
D12*
X154305000Y-107950000D03*
X144145000Y-107950000D03*
D13*
X145415000Y-105410000D03*
X151765000Y-102870000D03*
%TD*%
D12*
%TO.C,MX32_2*%
X80486250Y-127000000D03*
D10*
X75406250Y-127000000D03*
D12*
X70326250Y-127000000D03*
D13*
X71596250Y-124460000D03*
X77946250Y-121920000D03*
%TD*%
D12*
%TO.C,MX42*%
X282257500Y-127000000D03*
D10*
X287337500Y-127000000D03*
D12*
X292417500Y-127000000D03*
D13*
X283527500Y-124460000D03*
X289877500Y-121920000D03*
%TD*%
D10*
%TO.C,MX24*%
X225425000Y-107950000D03*
D12*
X230505000Y-107950000D03*
X220345000Y-107950000D03*
D13*
X221615000Y-105410000D03*
X227965000Y-102870000D03*
%TD*%
D12*
%TO.C,MX12*%
X287655000Y-88900000D03*
X277495000Y-88900000D03*
D10*
X282575000Y-88900000D03*
D13*
X278765000Y-86360000D03*
X285115000Y-83820000D03*
%TD*%
D14*
%TO.C,J1*%
X84990000Y-84840000D03*
X79210000Y-84840000D03*
D15*
X86420000Y-81190000D03*
D16*
X86420000Y-85370000D03*
X77780000Y-85370000D03*
D15*
X77780000Y-81190000D03*
%TD*%
D12*
%TO.C,MX15*%
X334645000Y-88900000D03*
X344805000Y-88900000D03*
D10*
X339725000Y-88900000D03*
D13*
X335915000Y-86360000D03*
X342265000Y-83820000D03*
%TD*%
D10*
%TO.C,MX50*%
X139700000Y-146050000D03*
D12*
X134620000Y-146050000D03*
X144780000Y-146050000D03*
D13*
X135890000Y-143510000D03*
X142240000Y-140970000D03*
%TD*%
D10*
%TO.C,MX1*%
X73025000Y-88900000D03*
D12*
X67945000Y-88900000D03*
X78105000Y-88900000D03*
D13*
X76835000Y-91440000D03*
X70485000Y-93980000D03*
%TD*%
D12*
%TO.C,MX71*%
X266223750Y-165100000D03*
X256063750Y-165100000D03*
D10*
X261143750Y-165100000D03*
D13*
X257333750Y-162560000D03*
X263683750Y-160020000D03*
%TD*%
D10*
%TO.C,MX29*%
X320675000Y-107950000D03*
D12*
X315595000Y-107950000D03*
X325755000Y-107950000D03*
D13*
X316865000Y-105410000D03*
X323215000Y-102870000D03*
%TD*%
D10*
%TO.C,MX57*%
X292100000Y-146050000D03*
D12*
X287020000Y-146050000D03*
X297180000Y-146050000D03*
D13*
X288290000Y-143510000D03*
X294640000Y-140970000D03*
%TD*%
D10*
%TO.C,MX18*%
X111125000Y-107950000D03*
D12*
X106045000Y-107950000D03*
X116205000Y-107950000D03*
D13*
X107315000Y-105410000D03*
X113665000Y-102870000D03*
%TD*%
D10*
%TO.C,MX44*%
X332581250Y-126937500D03*
D12*
X327501250Y-126937500D03*
X337661250Y-126937500D03*
D13*
X336391250Y-129477500D03*
X330041250Y-132017500D03*
%TD*%
D10*
%TO.C,MX21*%
X168275000Y-107950000D03*
D12*
X163195000Y-107950000D03*
X173355000Y-107950000D03*
D13*
X164465000Y-105410000D03*
X170815000Y-102870000D03*
%TD*%
D12*
%TO.C,MX59*%
X340042500Y-146050000D03*
X329882500Y-146050000D03*
D10*
X334962500Y-146050000D03*
D13*
X331152500Y-143510000D03*
X337502500Y-140970000D03*
%TD*%
D10*
%TO.C,MX43*%
X306387500Y-127000000D03*
D12*
X301307500Y-127000000D03*
X311467500Y-127000000D03*
D13*
X302577500Y-124460000D03*
X308927500Y-121920000D03*
%TD*%
D12*
%TO.C,MX75*%
X334645000Y-165100000D03*
X344805000Y-165100000D03*
D10*
X339725000Y-165100000D03*
D13*
X335915000Y-162560000D03*
X342265000Y-160020000D03*
%TD*%
D12*
%TO.C,MX38*%
X201295000Y-127000000D03*
D10*
X206375000Y-127000000D03*
D12*
X211455000Y-127000000D03*
D13*
X202565000Y-124460000D03*
X208915000Y-121920000D03*
%TD*%
D12*
%TO.C,MX36*%
X158432500Y-127000000D03*
D10*
X163512500Y-127000000D03*
D12*
X168592500Y-127000000D03*
D13*
X159702500Y-124460000D03*
X166052500Y-121920000D03*
%TD*%
D12*
%TO.C,MX11*%
X268605000Y-88900000D03*
D10*
X263525000Y-88900000D03*
D12*
X258445000Y-88900000D03*
D13*
X259715000Y-86360000D03*
X266065000Y-83820000D03*
%TD*%
D10*
%TO.C,MX61*%
X73025000Y-165100000D03*
D12*
X78105000Y-165100000D03*
X67945000Y-165100000D03*
D13*
X69215000Y-162560000D03*
X75565000Y-160020000D03*
%TD*%
D12*
%TO.C,MX27*%
X287655000Y-107950000D03*
X277495000Y-107950000D03*
D10*
X282575000Y-107950000D03*
D13*
X278765000Y-105410000D03*
X285115000Y-102870000D03*
%TD*%
D12*
%TO.C,MX47*%
X72707500Y-146050000D03*
X82867500Y-146050000D03*
D10*
X77787500Y-146050000D03*
D13*
X73977500Y-143510000D03*
X80327500Y-140970000D03*
%TD*%
D10*
%TO.C,MX3*%
X111125000Y-88900000D03*
D12*
X116205000Y-88900000D03*
X106045000Y-88900000D03*
D13*
X107315000Y-86360000D03*
X113665000Y-83820000D03*
%TD*%
D12*
%TO.C,MX33*%
X101282500Y-127000000D03*
X111442500Y-127000000D03*
D10*
X106362500Y-127000000D03*
D13*
X102552500Y-124460000D03*
X108902500Y-121920000D03*
%TD*%
D10*
%TO.C,MX49*%
X120650000Y-146050000D03*
D12*
X115570000Y-146050000D03*
X125730000Y-146050000D03*
D13*
X116840000Y-143510000D03*
X123190000Y-140970000D03*
%TD*%
D12*
%TO.C,MX64*%
X125095000Y-165100000D03*
D10*
X130175000Y-165100000D03*
D12*
X135255000Y-165100000D03*
D13*
X126365000Y-162560000D03*
X132715000Y-160020000D03*
%TD*%
D12*
%TO.C,MX23*%
X211455000Y-107950000D03*
X201295000Y-107950000D03*
D10*
X206375000Y-107950000D03*
D13*
X202565000Y-105410000D03*
X208915000Y-102870000D03*
%TD*%
D12*
%TO.C,MX13*%
X296545000Y-88900000D03*
X306705000Y-88900000D03*
D10*
X301625000Y-88900000D03*
D13*
X297815000Y-86360000D03*
X304165000Y-83820000D03*
%TD*%
D12*
%TO.C,MX9*%
X220345000Y-88900000D03*
X230505000Y-88900000D03*
D10*
X225425000Y-88900000D03*
D13*
X221615000Y-86360000D03*
X227965000Y-83820000D03*
%TD*%
D10*
%TO.C,MX34*%
X125412500Y-127000000D03*
D12*
X120332500Y-127000000D03*
X130492500Y-127000000D03*
D13*
X121602500Y-124460000D03*
X127952500Y-121920000D03*
%TD*%
D10*
%TO.C,MX63*%
X111125000Y-165100000D03*
D12*
X116205000Y-165100000D03*
X106045000Y-165100000D03*
D13*
X107315000Y-162560000D03*
X113665000Y-160020000D03*
%TD*%
D10*
%TO.C,MX53*%
X196850000Y-146050000D03*
D12*
X191770000Y-146050000D03*
X201930000Y-146050000D03*
D13*
X193040000Y-143510000D03*
X199390000Y-140970000D03*
%TD*%
D12*
%TO.C,MX74*%
X325755000Y-165100000D03*
D10*
X320675000Y-165100000D03*
D12*
X315595000Y-165100000D03*
D13*
X316865000Y-162560000D03*
X323215000Y-160020000D03*
%TD*%
D12*
%TO.C,MX4*%
X125095000Y-88900000D03*
X135255000Y-88900000D03*
D10*
X130175000Y-88900000D03*
D13*
X126365000Y-86360000D03*
X132715000Y-83820000D03*
%TD*%
D12*
%TO.C,MX52*%
X172720000Y-146050000D03*
X182880000Y-146050000D03*
D10*
X177800000Y-146050000D03*
D13*
X173990000Y-143510000D03*
X180340000Y-140970000D03*
%TD*%
D12*
%TO.C,MX55*%
X259080000Y-146050000D03*
X248920000Y-146050000D03*
D10*
X254000000Y-146050000D03*
D13*
X250190000Y-143510000D03*
X256540000Y-140970000D03*
%TD*%
D12*
%TO.C,MX25*%
X249555000Y-107950000D03*
X239395000Y-107950000D03*
D10*
X244475000Y-107950000D03*
D13*
X240665000Y-105410000D03*
X247015000Y-102870000D03*
%TD*%
D12*
%TO.C,MX72*%
X277495000Y-165100000D03*
D10*
X282575000Y-165100000D03*
D12*
X287655000Y-165100000D03*
D13*
X278765000Y-162560000D03*
X285115000Y-160020000D03*
%TD*%
D10*
%TO.C,MX30*%
X339725000Y-107950000D03*
D12*
X344805000Y-107950000D03*
X334645000Y-107950000D03*
D13*
X335915000Y-105410000D03*
X342265000Y-102870000D03*
%TD*%
D12*
%TO.C,MX70_2*%
X201295000Y-165100000D03*
X211455000Y-165100000D03*
D10*
X206375000Y-165100000D03*
D13*
X210185000Y-167640000D03*
X203835000Y-170180000D03*
%TD*%
D12*
%TO.C,MX58*%
X316230000Y-146050000D03*
X306070000Y-146050000D03*
D10*
X311150000Y-146050000D03*
D13*
X307340000Y-143510000D03*
X313690000Y-140970000D03*
%TD*%
D10*
%TO.C,MX17*%
X92075000Y-107950000D03*
D12*
X97155000Y-107950000D03*
X86995000Y-107950000D03*
D13*
X88265000Y-105410000D03*
X94615000Y-102870000D03*
%TD*%
D10*
%TO.C,MX70*%
X237331250Y-165100000D03*
D12*
X242411250Y-165100000D03*
X232251250Y-165100000D03*
D13*
X233521250Y-162560000D03*
X239871250Y-160020000D03*
%TD*%
D10*
%TO.C,MX28*%
X301625000Y-107950000D03*
D12*
X296545000Y-107950000D03*
X306705000Y-107950000D03*
D13*
X297815000Y-105410000D03*
X304165000Y-102870000D03*
%TD*%
D12*
%TO.C,MX37*%
X187642500Y-127000000D03*
D10*
X182562500Y-127000000D03*
D12*
X177482500Y-127000000D03*
D13*
X178752500Y-124460000D03*
X185102500Y-121920000D03*
%TD*%
D12*
%TO.C,MX44_2*%
X332898750Y-127000000D03*
X322738750Y-127000000D03*
D10*
X327818750Y-127000000D03*
D13*
X324008750Y-124460000D03*
X330358750Y-121920000D03*
%TD*%
D10*
%TO.C,MX62*%
X92075000Y-165100000D03*
D12*
X86995000Y-165100000D03*
X97155000Y-165100000D03*
D13*
X88265000Y-162560000D03*
X94615000Y-160020000D03*
%TD*%
D10*
%TO.C,MX6*%
X168275000Y-88900000D03*
D12*
X163195000Y-88900000D03*
X173355000Y-88900000D03*
D13*
X164465000Y-86360000D03*
X170815000Y-83820000D03*
%TD*%
M02*
