%TF.GenerationSoftware,KiCad,Pcbnew,(6.0.8-1)-1*%
%TF.CreationDate,2023-05-19T20:22:11+02:00*%
%TF.ProjectId,keyboard-template-60,6b657962-6f61-4726-942d-74656d706c61,rev?*%
%TF.SameCoordinates,Original*%
%TF.FileFunction,Copper,L1,Top*%
%TF.FilePolarity,Positive*%
%FSLAX46Y46*%
G04 Gerber Fmt 4.6, Leading zero omitted, Abs format (unit mm)*
G04 Created by KiCad (PCBNEW (6.0.8-1)-1) date 2023-05-19 20:22:11*
%MOMM*%
%LPD*%
G01*
G04 APERTURE LIST*
%TA.AperFunction,ComponentPad*%
%ADD10C,3.300000*%
%TD*%
%TA.AperFunction,ComponentPad*%
%ADD11O,1.200000X2.250000*%
%TD*%
%TA.AperFunction,ViaPad*%
%ADD12C,0.600000*%
%TD*%
%TA.AperFunction,ViaPad*%
%ADD13C,1.000000*%
%TD*%
%TA.AperFunction,Conductor*%
%ADD14C,0.381000*%
%TD*%
%TA.AperFunction,Conductor*%
%ADD15C,0.200000*%
%TD*%
%TA.AperFunction,Conductor*%
%ADD16C,0.250000*%
%TD*%
G04 APERTURE END LIST*
D10*
%TO.P,MX56,1,COL*%
%TO.N,COL10*%
X259715000Y-143510000D03*
%TO.P,MX56,2,ROW*%
%TO.N,Net-(D56-Pad2)*%
X266065000Y-140970000D03*
%TD*%
%TO.P,MX73,1,COL*%
%TO.N,COL12*%
X297815000Y-162560000D03*
%TO.P,MX73,2,ROW*%
%TO.N,Net-(D73-Pad2)*%
X304165000Y-160020000D03*
%TD*%
%TO.P,MX39,1,COL*%
%TO.N,COL8*%
X224472500Y-129540000D03*
%TO.P,MX39,2,ROW*%
%TO.N,39_2*%
X218122500Y-132080000D03*
%TD*%
%TO.P,MX19,1,COL*%
%TO.N,COL3*%
X135890000Y-105410000D03*
%TO.P,MX19,2,ROW*%
%TO.N,Net-(D19-Pad2)*%
X142240000Y-102870000D03*
%TD*%
%TO.P,MX45,1,COL*%
%TO.N,COL14*%
X333533750Y-124460000D03*
%TO.P,MX45,2,ROW*%
%TO.N,Net-(D45-Pad2)*%
X339883750Y-121920000D03*
%TD*%
%TO.P,MX5,1,COL*%
%TO.N,COL4*%
X145415000Y-86360000D03*
%TO.P,MX5,2,ROW*%
%TO.N,Net-(D5-Pad2)*%
X151765000Y-83820000D03*
%TD*%
%TO.P,MX16,1,COL*%
%TO.N,COL0*%
X73977500Y-105410000D03*
%TO.P,MX16,2,ROW*%
%TO.N,Net-(D16-Pad2)*%
X80327500Y-102870000D03*
%TD*%
%TO.P,MX51,1,COL*%
%TO.N,COL5*%
X164465000Y-143510000D03*
%TO.P,MX51,2,ROW*%
%TO.N,Net-(D51-Pad2)*%
X170815000Y-140970000D03*
%TD*%
%TO.P,MX40,1,COL*%
%TO.N,COL9*%
X235902500Y-124460000D03*
%TO.P,MX40,2,ROW*%
%TO.N,Net-(D40-Pad2)*%
X242252500Y-121920000D03*
%TD*%
%TO.P,MX8,1,COL*%
%TO.N,COL7*%
X202565000Y-86360000D03*
%TO.P,MX8,2,ROW*%
%TO.N,Net-(D8-Pad2)*%
X208915000Y-83820000D03*
%TD*%
%TO.P,MX7,1,COL*%
%TO.N,COL6*%
X183515000Y-86360000D03*
%TO.P,MX7,2,ROW*%
%TO.N,Net-(D7-Pad2)*%
X189865000Y-83820000D03*
%TD*%
%TO.P,MX26,1,COL*%
%TO.N,COL10*%
X250190000Y-105410000D03*
%TO.P,MX26,2,ROW*%
%TO.N,Net-(D26-Pad2)*%
X256540000Y-102870000D03*
%TD*%
%TO.P,MX68,1,COL*%
%TO.N,COL7*%
X202565000Y-162560000D03*
%TO.P,MX68,2,ROW*%
%TO.N,Net-(D68-Pad2)*%
X208915000Y-160020000D03*
%TD*%
%TO.P,MX41,1,COL*%
%TO.N,COL10*%
X254952500Y-124460000D03*
%TO.P,MX41,2,ROW*%
%TO.N,Net-(D41-Pad2)*%
X261302500Y-121920000D03*
%TD*%
%TO.P,MX48,1,COL*%
%TO.N,COL2*%
X107315000Y-143510000D03*
%TO.P,MX48,2,ROW*%
%TO.N,Net-(D48-Pad2)*%
X113665000Y-140970000D03*
%TD*%
%TO.P,MX65,1,COL*%
%TO.N,COL4*%
X145415000Y-162560000D03*
%TO.P,MX65,2,ROW*%
%TO.N,Net-(D65-Pad2)*%
X151765000Y-160020000D03*
%TD*%
%TO.P,MX22,1,COL*%
%TO.N,COL6*%
X193040000Y-105410000D03*
%TO.P,MX22,2,ROW*%
%TO.N,Net-(D22-Pad2)*%
X199390000Y-102870000D03*
%TD*%
%TO.P,MX69,1,COL*%
%TO.N,COL8*%
X231140000Y-162560000D03*
%TO.P,MX69,2,ROW*%
%TO.N,Net-(D69-Pad2)*%
X237490000Y-160020000D03*
%TD*%
%TO.P,MX35,1,COL*%
%TO.N,COL4*%
X150177500Y-124460000D03*
%TO.P,MX35,2,ROW*%
%TO.N,Net-(D35-Pad2)*%
X156527500Y-121920000D03*
%TD*%
%TO.P,MX32,1,COL*%
%TO.N,COL1*%
X93027500Y-124460000D03*
%TO.P,MX32,2,ROW*%
%TO.N,Net-(D32-Pad2)*%
X99377500Y-121920000D03*
%TD*%
%TO.P,MX2,1,COL*%
%TO.N,COL1*%
X95885000Y-91440000D03*
%TO.P,MX2,2,ROW*%
%TO.N,Net-(D2-Pad2)*%
X89535000Y-93980000D03*
%TD*%
%TO.P,MX14,1,COL*%
%TO.N,COL13*%
X316865000Y-86360000D03*
%TO.P,MX14,2,ROW*%
%TO.N,Net-(D14-Pad2)*%
X323215000Y-83820000D03*
%TD*%
%TO.P,MX67,1,COL*%
%TO.N,COL6*%
X173990000Y-162560000D03*
%TO.P,MX67,2,ROW*%
%TO.N,Net-(D67-Pad2)*%
X180340000Y-160020000D03*
%TD*%
%TO.P,MX54,1,COL*%
%TO.N,COL8*%
X221615000Y-143510000D03*
%TO.P,MX54,2,ROW*%
%TO.N,Net-(D54-Pad2)*%
X227965000Y-140970000D03*
%TD*%
%TO.P,MX10,1,COL*%
%TO.N,COL9*%
X240665000Y-86360000D03*
%TO.P,MX10,2,ROW*%
%TO.N,Net-(D10-Pad2)*%
X247015000Y-83820000D03*
%TD*%
%TO.P,MX20,1,COL*%
%TO.N,COL4*%
X154940000Y-105410000D03*
%TO.P,MX20,2,ROW*%
%TO.N,Net-(D20-Pad2)*%
X161290000Y-102870000D03*
%TD*%
%TO.P,MX42,1,COL*%
%TO.N,COL11*%
X274002500Y-124460000D03*
%TO.P,MX42,2,ROW*%
%TO.N,Net-(D42-Pad2)*%
X280352500Y-121920000D03*
%TD*%
%TO.P,MX24,1,COL*%
%TO.N,COL8*%
X212090000Y-105410000D03*
%TO.P,MX24,2,ROW*%
%TO.N,Net-(D24-Pad2)*%
X218440000Y-102870000D03*
%TD*%
%TO.P,MX12,1,COL*%
%TO.N,COL11*%
X278765000Y-86360000D03*
%TO.P,MX12,2,ROW*%
%TO.N,Net-(D12-Pad2)*%
X285115000Y-83820000D03*
%TD*%
D11*
%TO.P,J1,S1,SHIELD*%
%TO.N,GND*%
X87615000Y-81422500D03*
X76465000Y-81422500D03*
X87635000Y-86022500D03*
X76485000Y-86022500D03*
%TD*%
D10*
%TO.P,MX46,1,COL*%
%TO.N,COL0*%
X69215000Y-143510000D03*
%TO.P,MX46,2,ROW*%
%TO.N,Net-(D46-Pad2)*%
X75565000Y-140970000D03*
%TD*%
%TO.P,MX15,1,COL*%
%TO.N,COL14*%
X335915000Y-86360000D03*
%TO.P,MX15,2,ROW*%
%TO.N,Net-(D15-Pad2)*%
X342265000Y-83820000D03*
%TD*%
%TO.P,MX50,1,COL*%
%TO.N,COL4*%
X145415000Y-143510000D03*
%TO.P,MX50,2,ROW*%
%TO.N,Net-(D50-Pad2)*%
X151765000Y-140970000D03*
%TD*%
%TO.P,MX1,1,COL*%
%TO.N,COL0*%
X76835000Y-91440000D03*
%TO.P,MX1,2,ROW*%
%TO.N,Net-(D1-Pad2)*%
X70485000Y-93980000D03*
%TD*%
%TO.P,MX71,1,COL*%
%TO.N,COL10*%
X259715000Y-162560000D03*
%TO.P,MX71,2,ROW*%
%TO.N,Net-(D71-Pad2)*%
X266065000Y-160020000D03*
%TD*%
%TO.P,MX29,1,COL*%
%TO.N,COL13*%
X307340000Y-105410000D03*
%TO.P,MX29,2,ROW*%
%TO.N,Net-(D29-Pad2)*%
X313690000Y-102870000D03*
%TD*%
%TO.P,MX57,1,COL*%
%TO.N,COL11*%
X278765000Y-143510000D03*
%TO.P,MX57,2,ROW*%
%TO.N,Net-(D57-Pad2)*%
X285115000Y-140970000D03*
%TD*%
%TO.P,MX18,1,COL*%
%TO.N,COL2*%
X116840000Y-105410000D03*
%TO.P,MX18,2,ROW*%
%TO.N,Net-(D18-Pad2)*%
X123190000Y-102870000D03*
%TD*%
%TO.P,MX31,1,COL*%
%TO.N,COL0*%
X71596250Y-124460000D03*
%TO.P,MX31,2,ROW*%
%TO.N,Net-(D31-Pad2)*%
X77946250Y-121920000D03*
%TD*%
%TO.P,MX44,1,COL*%
%TO.N,COL13*%
X312102500Y-124460000D03*
%TO.P,MX44,2,ROW*%
%TO.N,Net-(D44-Pad2)*%
X318452500Y-121920000D03*
%TD*%
%TO.P,MX21,1,COL*%
%TO.N,COL5*%
X173990000Y-105410000D03*
%TO.P,MX21,2,ROW*%
%TO.N,Net-(D21-Pad2)*%
X180340000Y-102870000D03*
%TD*%
%TO.P,MX59,1,COL*%
%TO.N,COL13*%
X316865000Y-143510000D03*
%TO.P,MX59,2,ROW*%
%TO.N,Net-(D59-Pad2)*%
X323215000Y-140970000D03*
%TD*%
%TO.P,MX43,1,COL*%
%TO.N,COL12*%
X293052500Y-124460000D03*
%TO.P,MX43,2,ROW*%
%TO.N,Net-(D43-Pad2)*%
X299402500Y-121920000D03*
%TD*%
%TO.P,MX75,1,COL*%
%TO.N,COL14*%
X335915000Y-162560000D03*
%TO.P,MX75,2,ROW*%
%TO.N,Net-(D75-Pad2)*%
X342265000Y-160020000D03*
%TD*%
%TO.P,MX36,1,COL*%
%TO.N,COL5*%
X169227500Y-124460000D03*
%TO.P,MX36,2,ROW*%
%TO.N,Net-(D36-Pad2)*%
X175577500Y-121920000D03*
%TD*%
%TO.P,MX11,1,COL*%
%TO.N,COL10*%
X259715000Y-86360000D03*
%TO.P,MX11,2,ROW*%
%TO.N,Net-(D11-Pad2)*%
X266065000Y-83820000D03*
%TD*%
%TO.P,MX61,1,COL*%
%TO.N,COL0*%
X69215000Y-162560000D03*
%TO.P,MX61,2,ROW*%
%TO.N,Net-(D61-Pad2)*%
X75565000Y-160020000D03*
%TD*%
%TO.P,MX27,1,COL*%
%TO.N,COL11*%
X269240000Y-105410000D03*
%TO.P,MX27,2,ROW*%
%TO.N,Net-(D27-Pad2)*%
X275590000Y-102870000D03*
%TD*%
%TO.P,MX47,1,COL*%
%TO.N,COL1*%
X88265000Y-143510000D03*
%TO.P,MX47,2,ROW*%
%TO.N,Net-(D47-Pad2)*%
X94615000Y-140970000D03*
%TD*%
%TO.P,MX3,1,COL*%
%TO.N,COL2*%
X107315000Y-86360000D03*
%TO.P,MX3,2,ROW*%
%TO.N,Net-(D3-Pad2)*%
X113665000Y-83820000D03*
%TD*%
%TO.P,MX33,1,COL*%
%TO.N,COL2*%
X112077500Y-124460000D03*
%TO.P,MX33,2,ROW*%
%TO.N,Net-(D33-Pad2)*%
X118427500Y-121920000D03*
%TD*%
%TO.P,MX49,1,COL*%
%TO.N,COL3*%
X126365000Y-143510000D03*
%TO.P,MX49,2,ROW*%
%TO.N,Net-(D49-Pad2)*%
X132715000Y-140970000D03*
%TD*%
%TO.P,MX39_2,1,COL*%
%TO.N,COL8*%
X214471250Y-124460000D03*
%TO.P,MX39_2,2,ROW*%
%TO.N,39_2*%
X220821250Y-121920000D03*
%TD*%
%TO.P,MX64,1,COL*%
%TO.N,COL3*%
X126365000Y-162560000D03*
%TO.P,MX64,2,ROW*%
%TO.N,Net-(D64-Pad2)*%
X132715000Y-160020000D03*
%TD*%
%TO.P,MX60,1,COL*%
%TO.N,COL14*%
X335915000Y-143510000D03*
%TO.P,MX60,2,ROW*%
%TO.N,Net-(D60-Pad2)*%
X342265000Y-140970000D03*
%TD*%
%TO.P,MX13,1,COL*%
%TO.N,COL12*%
X297815000Y-86360000D03*
%TO.P,MX13,2,ROW*%
%TO.N,Net-(D13-Pad2)*%
X304165000Y-83820000D03*
%TD*%
%TO.P,MX9,1,COL*%
%TO.N,COL8*%
X221615000Y-86360000D03*
%TO.P,MX9,2,ROW*%
%TO.N,Net-(D9-Pad2)*%
X227965000Y-83820000D03*
%TD*%
%TO.P,MX34,1,COL*%
%TO.N,COL3*%
X131127500Y-124460000D03*
%TO.P,MX34,2,ROW*%
%TO.N,Net-(D34-Pad2)*%
X137477500Y-121920000D03*
%TD*%
%TO.P,MX63,1,COL*%
%TO.N,COL2*%
X107315000Y-162560000D03*
%TO.P,MX63,2,ROW*%
%TO.N,Net-(D63-Pad2)*%
X113665000Y-160020000D03*
%TD*%
%TO.P,MX53,1,COL*%
%TO.N,COL7*%
X202565000Y-143510000D03*
%TO.P,MX53,2,ROW*%
%TO.N,Net-(D53-Pad2)*%
X208915000Y-140970000D03*
%TD*%
%TO.P,MX37_2,1,COL*%
%TO.N,COL6*%
X198278750Y-129540000D03*
%TO.P,MX37_2,2,ROW*%
%TO.N,37_2*%
X191928750Y-132080000D03*
%TD*%
%TO.P,MX74,1,COL*%
%TO.N,COL13*%
X316865000Y-162560000D03*
%TO.P,MX74,2,ROW*%
%TO.N,Net-(D74-Pad2)*%
X323215000Y-160020000D03*
%TD*%
%TO.P,MX4,1,COL*%
%TO.N,COL3*%
X126365000Y-86360000D03*
%TO.P,MX4,2,ROW*%
%TO.N,Net-(D4-Pad2)*%
X132715000Y-83820000D03*
%TD*%
%TO.P,MX52,1,COL*%
%TO.N,COL6*%
X183515000Y-143510000D03*
%TO.P,MX52,2,ROW*%
%TO.N,Net-(D52-Pad2)*%
X189865000Y-140970000D03*
%TD*%
%TO.P,MX55,1,COL*%
%TO.N,COL9*%
X240665000Y-143510000D03*
%TO.P,MX55,2,ROW*%
%TO.N,Net-(D55-Pad2)*%
X247015000Y-140970000D03*
%TD*%
%TO.P,MX25,1,COL*%
%TO.N,COL9*%
X231140000Y-105410000D03*
%TO.P,MX25,2,ROW*%
%TO.N,Net-(D25-Pad2)*%
X237490000Y-102870000D03*
%TD*%
%TO.P,MX72,1,COL*%
%TO.N,COL11*%
X278765000Y-162560000D03*
%TO.P,MX72,2,ROW*%
%TO.N,Net-(D72-Pad2)*%
X285115000Y-160020000D03*
%TD*%
%TO.P,MX30,1,COL*%
%TO.N,COL14*%
X331152500Y-105410000D03*
%TO.P,MX30,2,ROW*%
%TO.N,Net-(D30-Pad2)*%
X337502500Y-102870000D03*
%TD*%
%TO.P,MX58,1,COL*%
%TO.N,COL12*%
X297815000Y-143510000D03*
%TO.P,MX58,2,ROW*%
%TO.N,Net-(D58-Pad2)*%
X304165000Y-140970000D03*
%TD*%
%TO.P,MX17,1,COL*%
%TO.N,COL1*%
X97790000Y-105410000D03*
%TO.P,MX17,2,ROW*%
%TO.N,Net-(D17-Pad2)*%
X104140000Y-102870000D03*
%TD*%
%TO.P,MX28,1,COL*%
%TO.N,COL12*%
X288290000Y-105410000D03*
%TO.P,MX28,2,ROW*%
%TO.N,Net-(D28-Pad2)*%
X294640000Y-102870000D03*
%TD*%
%TO.P,MX37,1,COL*%
%TO.N,COL6*%
X188277500Y-124460000D03*
%TO.P,MX37,2,ROW*%
%TO.N,37_2*%
X194627500Y-121920000D03*
%TD*%
%TO.P,MX62,1,COL*%
%TO.N,COL1*%
X88265000Y-162560000D03*
%TO.P,MX62,2,ROW*%
%TO.N,Net-(D62-Pad2)*%
X94615000Y-160020000D03*
%TD*%
%TO.P,MX6,1,COL*%
%TO.N,COL5*%
X164465000Y-86360000D03*
%TO.P,MX6,2,ROW*%
%TO.N,Net-(D6-Pad2)*%
X170815000Y-83820000D03*
%TD*%
D12*
%TO.N,+5V*%
X88500000Y-138100000D03*
X92550000Y-131400000D03*
X81450000Y-99200000D03*
X88000000Y-98200000D03*
X81330236Y-136350000D03*
X86249500Y-128550000D03*
D13*
X83212500Y-128456250D03*
D12*
X83200000Y-117250000D03*
X80875000Y-130375000D03*
%TO.N,Net-(D1-Pad2)*%
X92400000Y-83750000D03*
%TO.N,Net-(D2-Pad2)*%
X100250000Y-82800000D03*
%TO.N,Net-(D16-Pad2)*%
X92500000Y-109800000D03*
%TO.N,Net-(D31-Pad2)*%
X90150000Y-114600000D03*
%TO.N,ROW3*%
X91250000Y-141800000D03*
X98600000Y-147750000D03*
%TO.N,Net-(D46-Pad2)*%
X83700000Y-149100000D03*
%TO.N,D-*%
X86005209Y-101944791D03*
X88500000Y-99450000D03*
%TO.N,D+*%
X88173912Y-100623912D03*
X86850731Y-101947092D03*
%TO.N,COL1*%
X87950000Y-128550000D03*
%TO.N,Net-(J1-PadA5)*%
X80950000Y-88450000D03*
X74850000Y-86900000D03*
%TD*%
D14*
%TO.N,+5V*%
X80850000Y-114900000D02*
X83200000Y-117250000D01*
X80850000Y-107200000D02*
X80850000Y-114900000D01*
X80875000Y-131125000D02*
X80875000Y-130425000D01*
X90487500Y-136112500D02*
X88500000Y-138100000D01*
X92550000Y-131400000D02*
X90487500Y-133462500D01*
X82900000Y-128400000D02*
X86099500Y-128400000D01*
X80875000Y-131125000D02*
X80875000Y-130375000D01*
X83080236Y-138100000D02*
X88500000Y-138100000D01*
X81815118Y-136834882D02*
X81330236Y-136350000D01*
X79511797Y-100800000D02*
X78287000Y-102024797D01*
X82050000Y-100800000D02*
X79511797Y-100800000D01*
X87675000Y-98525000D02*
X88000000Y-98200000D01*
X81450000Y-99300000D02*
X81450000Y-99200000D01*
X82500000Y-100350000D02*
X82150000Y-100000000D01*
D15*
X83212500Y-128456250D02*
X82793750Y-128456250D01*
D14*
X90487500Y-133462500D02*
X90487500Y-136112500D01*
X80875000Y-130425000D02*
X82425000Y-128875000D01*
X87675000Y-98525000D02*
X85850000Y-100350000D01*
X78287000Y-102024797D02*
X78287000Y-104637000D01*
X82425000Y-128875000D02*
X82843750Y-128456250D01*
X85850000Y-100350000D02*
X82500000Y-100350000D01*
X81815118Y-136834882D02*
X83080236Y-138100000D01*
X86099500Y-128400000D02*
X86249500Y-128550000D01*
X80875000Y-135894764D02*
X80875000Y-131125000D01*
X81815118Y-136834882D02*
X80875000Y-135894764D01*
X82843750Y-128456250D02*
X83212500Y-128456250D01*
X78287000Y-104637000D02*
X80850000Y-107200000D01*
X82500000Y-100350000D02*
X82050000Y-100800000D01*
X82425000Y-128875000D02*
X82900000Y-128400000D01*
X82150000Y-100000000D02*
X81450000Y-99300000D01*
D15*
%TO.N,Net-(D1-Pad2)*%
X92400000Y-85100000D02*
X92400000Y-83750000D01*
X85550000Y-90450000D02*
X87900000Y-90450000D01*
X70485000Y-93980000D02*
X82020000Y-93980000D01*
X82020000Y-93980000D02*
X84100000Y-91900000D01*
X84100000Y-91900000D02*
X85550000Y-90450000D01*
X88950000Y-89400000D02*
X88950000Y-88550000D01*
X92000000Y-85500000D02*
X92400000Y-85100000D01*
X87900000Y-90450000D02*
X88950000Y-89400000D01*
X88950000Y-88550000D02*
X92000000Y-85500000D01*
%TO.N,Net-(D2-Pad2)*%
X89535000Y-93980000D02*
X90309777Y-93980000D01*
X100250000Y-82800000D02*
X100250000Y-84039778D01*
X100250000Y-84039778D02*
X98844889Y-85444889D01*
X90309777Y-93980000D02*
X98844889Y-85444889D01*
%TO.N,Net-(D16-Pad2)*%
X80327500Y-102870000D02*
X87253750Y-109796250D01*
X92496250Y-109796250D02*
X92500000Y-109800000D01*
X87253750Y-109796250D02*
X92496250Y-109796250D01*
%TO.N,Net-(D31-Pad2)*%
X82830000Y-121920000D02*
X90150000Y-114600000D01*
X77946250Y-121920000D02*
X82830000Y-121920000D01*
%TO.N,ROW3*%
X91250000Y-141800000D02*
X91250000Y-141877414D01*
X97122586Y-147750000D02*
X98600000Y-147750000D01*
X91250000Y-141877414D02*
X97122586Y-147750000D01*
%TO.N,Net-(D46-Pad2)*%
X82747500Y-148152500D02*
X83695000Y-149100000D01*
X83695000Y-149100000D02*
X83700000Y-149100000D01*
X82747500Y-148152500D02*
X75565000Y-140970000D01*
D16*
%TO.N,COL10*%
X250190000Y-105410000D02*
X250190000Y-119697500D01*
X254952500Y-138747500D02*
X259715000Y-143510000D01*
X250190000Y-119697500D02*
X254952500Y-124460000D01*
X259715000Y-143510000D02*
X259715000Y-162560000D01*
X254952500Y-124460000D02*
X254952500Y-138747500D01*
X259715000Y-86360000D02*
X257381548Y-86360000D01*
X250190000Y-93551548D02*
X250190000Y-105410000D01*
X257381548Y-86360000D02*
X250190000Y-93551548D01*
D15*
%TO.N,D-*%
X88500000Y-99450000D02*
X86005209Y-101944791D01*
%TO.N,D+*%
X86850731Y-101947092D02*
X88173912Y-100623912D01*
D16*
%TO.N,COL0*%
X72400000Y-140325000D02*
X72400000Y-128650000D01*
X73977500Y-122078750D02*
X71596250Y-124460000D01*
D15*
X71596250Y-125446250D02*
X72400000Y-126250000D01*
D16*
X69215000Y-143510000D02*
X69215000Y-162560000D01*
D15*
X72400000Y-126250000D02*
X72400000Y-128650000D01*
D16*
X69215000Y-143510000D02*
X72400000Y-140325000D01*
X73977500Y-105410000D02*
X73977500Y-122078750D01*
D15*
X71596250Y-124460000D02*
X71596250Y-125446250D01*
D16*
%TO.N,COL1*%
X107650000Y-136600000D02*
X107650000Y-126350000D01*
X92040000Y-124460000D02*
X87950000Y-128550000D01*
X93027500Y-124460000D02*
X92040000Y-124460000D01*
X95885000Y-91440000D02*
X95885000Y-103505000D01*
X105760000Y-124460000D02*
X93027500Y-124460000D01*
X101400000Y-141900000D02*
X102250000Y-141050000D01*
X100500000Y-155200000D02*
X101400000Y-154300000D01*
X95625000Y-155200000D02*
X100500000Y-155200000D01*
X88265000Y-143510000D02*
X88265000Y-162560000D01*
X103200000Y-141050000D02*
X107650000Y-136600000D01*
X97790000Y-119697500D02*
X93027500Y-124460000D01*
X97790000Y-105410000D02*
X97790000Y-119697500D01*
X107650000Y-126350000D02*
X105760000Y-124460000D01*
X102250000Y-141050000D02*
X103200000Y-141050000D01*
X95885000Y-103505000D02*
X97790000Y-105410000D01*
X101400000Y-154300000D02*
X101400000Y-141900000D01*
X88265000Y-162560000D02*
X95625000Y-155200000D01*
%TO.N,COL5*%
X164465000Y-95885000D02*
X173990000Y-105410000D01*
X173990000Y-119697500D02*
X169227500Y-124460000D01*
X164465000Y-86360000D02*
X164465000Y-95885000D01*
X173990000Y-105410000D02*
X173990000Y-119697500D01*
X169227500Y-138747500D02*
X164465000Y-143510000D01*
X169227500Y-124460000D02*
X169227500Y-138747500D01*
%TO.N,COL6*%
X199866250Y-129540000D02*
X198278750Y-129540000D01*
X188277500Y-124460000D02*
X200660000Y-124460000D01*
X181181548Y-86360000D02*
X180994999Y-86546549D01*
X201612500Y-125412500D02*
X201612500Y-127793750D01*
X193040000Y-112077500D02*
X201612500Y-120650000D01*
X200660000Y-124460000D02*
X201612500Y-123507500D01*
X183515000Y-143510000D02*
X181181548Y-143510000D01*
X180994999Y-86546549D02*
X180994999Y-93364999D01*
X173990000Y-150701548D02*
X173990000Y-162560000D01*
X193040000Y-105410000D02*
X193040000Y-112077500D01*
X183515000Y-86360000D02*
X181181548Y-86360000D01*
X200660000Y-124460000D02*
X201612500Y-125412500D01*
X201612500Y-123507500D02*
X201612500Y-123031250D01*
X201612500Y-120650000D02*
X201612500Y-123031250D01*
X198278750Y-129540000D02*
X184308750Y-143510000D01*
X181181548Y-143510000D02*
X173990000Y-150701548D01*
X180994999Y-93364999D02*
X193040000Y-105410000D01*
X184308750Y-143510000D02*
X183515000Y-143510000D01*
X201612500Y-127793750D02*
X199866250Y-129540000D01*
%TO.N,COL7*%
X203180001Y-142894999D02*
X202565000Y-143510000D01*
X202565000Y-143510000D02*
X202565000Y-162560000D01*
X203180001Y-86975001D02*
X203180001Y-142894999D01*
X202565000Y-86360000D02*
X203180001Y-86975001D01*
%TO.N,COL8*%
X221615000Y-143510000D02*
X221615000Y-152066117D01*
X212090000Y-93551548D02*
X212090000Y-105410000D01*
X211931250Y-133826250D02*
X211931250Y-126206250D01*
X219281548Y-86360000D02*
X212090000Y-93551548D01*
X214471250Y-124460000D02*
X226060000Y-124460000D01*
X211931250Y-126206250D02*
X213677500Y-124460000D01*
X221615000Y-143510000D02*
X211931250Y-133826250D01*
X227806250Y-126206250D02*
X227806250Y-127793750D01*
X226060000Y-124460000D02*
X227806250Y-126206250D01*
X226060000Y-129540000D02*
X224472500Y-129540000D01*
X221615000Y-152066117D02*
X231140000Y-161591117D01*
X212090000Y-122078750D02*
X214471250Y-124460000D01*
X231140000Y-161591117D02*
X231140000Y-162560000D01*
X212090000Y-105410000D02*
X212090000Y-122078750D01*
X221615000Y-86360000D02*
X219281548Y-86360000D01*
X227806250Y-127793750D02*
X226060000Y-129540000D01*
X213677500Y-124460000D02*
X214471250Y-124460000D01*
%TO.N,COL9*%
X235902500Y-124460000D02*
X235902500Y-138747500D01*
X240665000Y-86360000D02*
X240665000Y-89397769D01*
X231140000Y-98922769D02*
X231140000Y-105410000D01*
X231140000Y-119697500D02*
X235902500Y-124460000D01*
X240665000Y-89397769D02*
X231140000Y-98922769D01*
X231140000Y-105410000D02*
X231140000Y-119697500D01*
X235902500Y-138747500D02*
X240665000Y-143510000D01*
%TO.N,COL13*%
X307340000Y-93551548D02*
X307340000Y-105410000D01*
X307340000Y-119697500D02*
X312102500Y-124460000D01*
X316865000Y-143510000D02*
X316865000Y-162560000D01*
X314531548Y-86360000D02*
X307340000Y-93551548D01*
X316865000Y-86360000D02*
X314531548Y-86360000D01*
X307340000Y-105410000D02*
X307340000Y-119697500D01*
X312102500Y-124460000D02*
X312102500Y-138747500D01*
X312102500Y-138747500D02*
X316865000Y-143510000D01*
%TO.N,COL14*%
X333533750Y-124460000D02*
X333533750Y-141128750D01*
X333533750Y-141128750D02*
X335915000Y-143510000D01*
X331152500Y-122078750D02*
X333533750Y-124460000D01*
X335915000Y-100647500D02*
X331152500Y-105410000D01*
X335915000Y-86360000D02*
X335915000Y-100647500D01*
X335915000Y-143510000D02*
X335915000Y-162560000D01*
X331152500Y-105410000D02*
X331152500Y-122078750D01*
D15*
%TO.N,Net-(J1-PadA5)*%
X74850000Y-86900000D02*
X75600000Y-87650000D01*
X75600000Y-87650000D02*
X77200000Y-87650000D01*
X80150000Y-87650000D02*
X80950000Y-88450000D01*
X77200000Y-87650000D02*
X80150000Y-87650000D01*
D16*
%TO.N,COL2*%
X107315000Y-143510000D02*
X107315000Y-162560000D01*
X107315000Y-86360000D02*
X107315000Y-95885000D01*
X112077500Y-138747500D02*
X107315000Y-143510000D01*
X107315000Y-95885000D02*
X116840000Y-105410000D01*
X116840000Y-119697500D02*
X112077500Y-124460000D01*
X116840000Y-105410000D02*
X116840000Y-119697500D01*
X112077500Y-124460000D02*
X112077500Y-138747500D01*
%TO.N,COL3*%
X123844999Y-143696549D02*
X123844999Y-160039999D01*
X135890000Y-105410000D02*
X135890000Y-119697500D01*
X135890000Y-119697500D02*
X131127500Y-124460000D01*
X128794048Y-124460000D02*
X126365000Y-126889048D01*
X126365000Y-86360000D02*
X126365000Y-95885000D01*
X123844999Y-160039999D02*
X126365000Y-162560000D01*
X126365000Y-95885000D02*
X135890000Y-105410000D01*
X131127500Y-124460000D02*
X128794048Y-124460000D01*
X126365000Y-126889048D02*
X126365000Y-143510000D01*
X124031548Y-143510000D02*
X123844999Y-143696549D01*
X126365000Y-143510000D02*
X124031548Y-143510000D01*
%TO.N,COL4*%
X154940000Y-105410000D02*
X154940000Y-119697500D01*
X150177500Y-124460000D02*
X150177500Y-138747500D01*
X150177500Y-138747500D02*
X145415000Y-143510000D01*
X145415000Y-95885000D02*
X154940000Y-105410000D01*
X154940000Y-119697500D02*
X150177500Y-124460000D01*
X145415000Y-143510000D02*
X145415000Y-162560000D01*
X145415000Y-86360000D02*
X145415000Y-95885000D01*
%TO.N,COL11*%
X269240000Y-119697500D02*
X274002500Y-124460000D01*
X278765000Y-143510000D02*
X278765000Y-162560000D01*
X274002500Y-124460000D02*
X274002500Y-138747500D01*
X269240000Y-105410000D02*
X269240000Y-119697500D01*
X274002500Y-138747500D02*
X278765000Y-143510000D01*
X278765000Y-95885000D02*
X269240000Y-105410000D01*
X278765000Y-86360000D02*
X278765000Y-95885000D01*
%TO.N,COL12*%
X293052500Y-124460000D02*
X293052500Y-138747500D01*
X297815000Y-143510000D02*
X297815000Y-162560000D01*
X297815000Y-95885000D02*
X288290000Y-105410000D01*
X297815000Y-86360000D02*
X297815000Y-95885000D01*
X288290000Y-105410000D02*
X288290000Y-119697500D01*
X293052500Y-138747500D02*
X297815000Y-143510000D01*
X288290000Y-119697500D02*
X293052500Y-124460000D01*
D15*
%TO.N,37_2*%
X186848750Y-132080000D02*
X191928750Y-132080000D01*
X194627500Y-121920000D02*
X186848750Y-121920000D01*
X184943750Y-130175000D02*
X186848750Y-132080000D01*
X184943750Y-123825000D02*
X184943750Y-130175000D01*
X186848750Y-121920000D02*
X184943750Y-123825000D01*
%TO.N,39_2*%
X220821250Y-121920000D02*
X226695000Y-121920000D01*
X225901250Y-132080000D02*
X218122500Y-132080000D01*
X228231250Y-123456250D02*
X228231250Y-129750000D01*
X228231250Y-129750000D02*
X225901250Y-132080000D01*
X226695000Y-121920000D02*
X228231250Y-123456250D01*
%TD*%
M02*
