M48
; DRILL file {KiCad (6.0.8-1)-1} date 2023 December 24, Sunday 13:05:27
; FORMAT={-:-/ absolute / inch / decimal}
; #@! TF.CreationDate,2023-12-24T13:05:27+01:00
; #@! TF.GenerationSoftware,Kicad,Pcbnew,(6.0.8-1)-1
; #@! TF.FileFunction,Plated,1,2,PTH
FMAT,2
INCH
; #@! TA.AperFunction,Plated,PTH,ViaDrill
T1C0.0118
; #@! TA.AperFunction,Plated,PTH,ViaDrill
T2C0.0197
; #@! TA.AperFunction,Plated,PTH,ComponentDrill
T3C0.0236
; #@! TA.AperFunction,Plated,PTH,ComponentDrill
T4C0.1181
%
G90
G05
T1
X2.725Y-3.9
X2.725Y-4.525
X2.9469Y-3.4272
X3.1785Y-3.4752
X3.2188Y-4.4062
X3.2343Y-3.9125
X3.2625Y-5.2
X3.2657Y-3.9125
X3.3031Y-3.4764
X3.355Y-3.8511
X3.3773Y-3.8733
X3.5256Y-3.4193
X3.6613Y-3.9555
X3.7795Y-4.5227
X3.8286Y-4.9457
X3.8775Y-4.4087
X4.0625Y-3.5288
X4.0625Y-3.6587
X4.3125Y-5.1875
X4.4375Y-5.1562
X8.5827Y-5.9843
X8.9764Y-6.5354
T2
X3.1358Y-3.5217
X3.3504Y-3.5
X3.4021Y-4.4375
X3.4584Y-4.7542
X3.6713Y-4.4212
X3.7441Y-4.8327
X3.7917Y-4.4819
T4
X2.725Y-4.15
X2.725Y-6.4
X2.775Y-3.7
X2.8188Y-4.9
X2.9125Y-5.65
X2.975Y-4.05
X2.975Y-6.3
X3.025Y-3.6
X3.0562Y-5.2
X3.0688Y-4.8
X3.1625Y-5.55
X3.3062Y-5.1
X3.475Y-4.15
X3.475Y-6.4
X3.525Y-3.7
X3.725Y-4.05
X3.725Y-6.3
X3.775Y-3.6
X3.85Y-5.65
X4.0375Y-4.9
X4.1Y-5.55
X4.225Y-3.4
X4.225Y-4.15
X4.225Y-6.4
X4.2875Y-4.8
X4.475Y-3.3
X4.475Y-4.05
X4.475Y-6.3
X4.6Y-5.65
X4.7875Y-4.9
X4.85Y-5.55
X4.975Y-3.4
X4.975Y-4.15
X4.975Y-6.4
X5.0375Y-4.8
X5.225Y-3.3
X5.225Y-4.05
X5.225Y-6.3
X5.35Y-5.65
X5.5375Y-4.9
X5.6Y-5.55
X5.725Y-3.4
X5.725Y-4.15
X5.7875Y-4.8
X5.8187Y-6.4
X5.975Y-3.3
X5.975Y-4.05
X6.0687Y-6.3
X6.1Y-5.65
X6.2875Y-4.9
X6.35Y-5.55
X6.475Y-3.4
X6.475Y-4.15
X6.5375Y-4.8
X6.725Y-3.3
X6.725Y-4.05
X6.7562Y-6.4
X6.85Y-5.65
X7.0062Y-6.3
X7.0375Y-4.9
X7.1Y-5.55
X7.225Y-3.4
X7.225Y-4.15
X7.2875Y-4.8
X7.475Y-3.3
X7.475Y-4.05
X7.6Y-5.65
X7.6Y-6.4
X7.85Y-5.55
X7.85Y-6.3
X7.975Y-3.4
X7.975Y-4.15
X7.975Y-4.9
X8.025Y-6.7
X8.225Y-3.3
X8.225Y-4.05
X8.225Y-4.8
X8.275Y-6.6
X8.35Y-5.65
X8.35Y-6.4
X8.6Y-5.55
X8.6Y-6.3
X8.725Y-3.4
X8.725Y-4.15
X8.9125Y-4.9
X8.975Y-3.3
X8.975Y-4.05
X9.1Y-5.65
X9.1625Y-4.8
X9.1937Y-6.4
X9.35Y-5.55
X9.4437Y-6.3
X9.475Y-3.4
X9.475Y-4.15
X9.6625Y-4.9
X9.725Y-3.3
X9.725Y-4.05
X9.85Y-5.65
X9.9125Y-4.8
X10.1Y-5.55
X10.1312Y-6.4
X10.225Y-3.4
X10.225Y-4.15
X10.3812Y-6.3
X10.4125Y-4.9
X10.475Y-3.3
X10.475Y-4.05
X10.6Y-5.65
X10.6625Y-4.8
X10.85Y-5.55
X10.975Y-3.4
X10.975Y-4.15
X10.975Y-6.4
X11.1625Y-4.9
X11.225Y-3.3
X11.225Y-4.05
X11.225Y-6.3
X11.35Y-5.65
X11.4125Y-4.8
X11.6Y-5.55
X11.725Y-3.4
X11.725Y-4.15
X11.725Y-6.4
X11.9125Y-4.9
X11.975Y-3.3
X11.975Y-4.05
X11.975Y-6.3
X12.1Y-5.65
X12.1625Y-4.8
X12.35Y-5.55
X12.475Y-3.4
X12.475Y-4.15
X12.475Y-6.4
X12.725Y-3.3
X12.725Y-4.05
X12.725Y-6.3
X12.7562Y-4.9
X12.9938Y-5.1975
X13.0062Y-4.8
X13.0375Y-5.65
X13.225Y-3.4
X13.225Y-4.15
X13.225Y-6.4
X13.2438Y-5.0975
X13.2875Y-5.55
X13.475Y-3.3
X13.475Y-4.05
X13.475Y-6.3
T3
G00X3.0104Y-3.2263
M15
G01X3.0104Y-3.1849
M16
G05
G00X3.0112Y-3.4074
M15
G01X3.0112Y-3.366
M16
G05
G00X3.4494Y-3.2263
M15
G01X3.4494Y-3.1849
M16
G05
G00X3.4502Y-3.4074
M15
G01X3.4502Y-3.366
M16
G05
T0
M30
