%TF.GenerationSoftware,KiCad,Pcbnew,7.0.10*%
%TF.CreationDate,2024-02-04T16:24:49+01:00*%
%TF.ProjectId,tsuka60-pro,7473756b-6136-4302-9d70-726f2e6b6963,rev?*%
%TF.SameCoordinates,Original*%
%TF.FileFunction,Profile,NP*%
%FSLAX46Y46*%
G04 Gerber Fmt 4.6, Leading zero omitted, Abs format (unit mm)*
G04 Created by KiCad (PCBNEW 7.0.10) date 2024-02-04 16:24:49*
%MOMM*%
%LPD*%
G01*
G04 APERTURE LIST*
%TA.AperFunction,Profile*%
%ADD10C,0.100000*%
%TD*%
%TA.AperFunction,Profile*%
%ADD11C,0.300000*%
%TD*%
G04 APERTURE END LIST*
D10*
X193350000Y-127950000D02*
X190800000Y-127950000D01*
X193350000Y-125450000D02*
X190800000Y-125450000D01*
X193350000Y-127950000D02*
G75*
G03*
X193350000Y-125450000I0J1250000D01*
G01*
X190800000Y-125450000D02*
G75*
G03*
X190800000Y-127950000I0J-1250000D01*
G01*
D11*
%TO.C,REF\u002A\u002A*%
X63875000Y-134800000D02*
X63875000Y-81700000D01*
X63875000Y-137600000D02*
X67675000Y-137600000D01*
X63875000Y-172300000D02*
X63875000Y-137600000D01*
X65875000Y-79700000D02*
X77525000Y-79700000D01*
X65875000Y-174300000D02*
X346875000Y-174300000D01*
X67675000Y-134800000D02*
X63875000Y-134800000D01*
X345075000Y-134800000D02*
X348875000Y-134800000D01*
X345075000Y-137600000D02*
X348875000Y-137600000D01*
X346875000Y-79700000D02*
X77525000Y-79700000D01*
X348875000Y-134800000D02*
X348875000Y-81700000D01*
X348875000Y-137600000D02*
X348875000Y-172300000D01*
X65875000Y-79700000D02*
G75*
G03*
X63875000Y-81700000I-1J-1999999D01*
G01*
X63875000Y-172300000D02*
G75*
G03*
X65875000Y-174300000I1999999J-1D01*
G01*
X69075000Y-136200000D02*
G75*
G03*
X67675000Y-134800000I-1400002J-2D01*
G01*
X67675000Y-137600000D02*
G75*
G03*
X69075000Y-136200000I-2J1400002D01*
G01*
X345075000Y-134800000D02*
G75*
G03*
X343675000Y-136200000I0J-1400000D01*
G01*
X343675000Y-136200000D02*
G75*
G03*
X345075000Y-137600000I1400000J0D01*
G01*
X348875000Y-81700000D02*
G75*
G03*
X346875000Y-79700000I-2000000J0D01*
G01*
X346875000Y-174300000D02*
G75*
G03*
X348875000Y-172300000I0J2000000D01*
G01*
%TD*%
M02*
