%TF.GenerationSoftware,KiCad,Pcbnew,7.0.10*%
%TF.CreationDate,2024-02-04T16:24:49+01:00*%
%TF.ProjectId,tsuka60-pro,7473756b-6136-4302-9d70-726f2e6b6963,rev?*%
%TF.SameCoordinates,Original*%
%TF.FileFunction,Other,Comment*%
%FSLAX46Y46*%
G04 Gerber Fmt 4.6, Leading zero omitted, Abs format (unit mm)*
G04 Created by KiCad (PCBNEW 7.0.10) date 2024-02-04 16:24:50*
%MOMM*%
%LPD*%
G01*
G04 APERTURE LIST*
%ADD10C,0.030000*%
%ADD11C,0.150000*%
G04 APERTURE END LIST*
D10*
X101298215Y-132053463D02*
X101298215Y-131853463D01*
X101412500Y-132053463D02*
X101326786Y-131939178D01*
X101412500Y-131853463D02*
X101298215Y-131967749D01*
X101498215Y-131948701D02*
X101564881Y-131948701D01*
X101593453Y-132053463D02*
X101498215Y-132053463D01*
X101498215Y-132053463D02*
X101498215Y-131853463D01*
X101498215Y-131853463D02*
X101593453Y-131853463D01*
X101679167Y-131948701D02*
X101745833Y-131948701D01*
X101774405Y-132053463D02*
X101679167Y-132053463D01*
X101679167Y-132053463D02*
X101679167Y-131853463D01*
X101679167Y-131853463D02*
X101774405Y-131853463D01*
X101860119Y-132053463D02*
X101860119Y-131853463D01*
X101860119Y-131853463D02*
X101936309Y-131853463D01*
X101936309Y-131853463D02*
X101955357Y-131862987D01*
X101955357Y-131862987D02*
X101964880Y-131872511D01*
X101964880Y-131872511D02*
X101974404Y-131891559D01*
X101974404Y-131891559D02*
X101974404Y-131920130D01*
X101974404Y-131920130D02*
X101964880Y-131939178D01*
X101964880Y-131939178D02*
X101955357Y-131948701D01*
X101955357Y-131948701D02*
X101936309Y-131958225D01*
X101936309Y-131958225D02*
X101860119Y-131958225D01*
X102060119Y-131977273D02*
X102212500Y-131977273D01*
X102345833Y-131853463D02*
X102383928Y-131853463D01*
X102383928Y-131853463D02*
X102402976Y-131862987D01*
X102402976Y-131862987D02*
X102422023Y-131882035D01*
X102422023Y-131882035D02*
X102431547Y-131920130D01*
X102431547Y-131920130D02*
X102431547Y-131986797D01*
X102431547Y-131986797D02*
X102422023Y-132024892D01*
X102422023Y-132024892D02*
X102402976Y-132043940D01*
X102402976Y-132043940D02*
X102383928Y-132053463D01*
X102383928Y-132053463D02*
X102345833Y-132053463D01*
X102345833Y-132053463D02*
X102326785Y-132043940D01*
X102326785Y-132043940D02*
X102307738Y-132024892D01*
X102307738Y-132024892D02*
X102298214Y-131986797D01*
X102298214Y-131986797D02*
X102298214Y-131920130D01*
X102298214Y-131920130D02*
X102307738Y-131882035D01*
X102307738Y-131882035D02*
X102326785Y-131862987D01*
X102326785Y-131862987D02*
X102345833Y-131853463D01*
X102517262Y-131853463D02*
X102517262Y-132015368D01*
X102517262Y-132015368D02*
X102526785Y-132034416D01*
X102526785Y-132034416D02*
X102536309Y-132043940D01*
X102536309Y-132043940D02*
X102555357Y-132053463D01*
X102555357Y-132053463D02*
X102593452Y-132053463D01*
X102593452Y-132053463D02*
X102612500Y-132043940D01*
X102612500Y-132043940D02*
X102622023Y-132034416D01*
X102622023Y-132034416D02*
X102631547Y-132015368D01*
X102631547Y-132015368D02*
X102631547Y-131853463D01*
X102698214Y-131853463D02*
X102812500Y-131853463D01*
X102755357Y-132053463D02*
X102755357Y-131853463D01*
X103012500Y-131853463D02*
X103145833Y-131853463D01*
X103145833Y-131853463D02*
X103012500Y-132053463D01*
X103012500Y-132053463D02*
X103145833Y-132053463D01*
X103260119Y-131853463D02*
X103298214Y-131853463D01*
X103298214Y-131853463D02*
X103317262Y-131862987D01*
X103317262Y-131862987D02*
X103336309Y-131882035D01*
X103336309Y-131882035D02*
X103345833Y-131920130D01*
X103345833Y-131920130D02*
X103345833Y-131986797D01*
X103345833Y-131986797D02*
X103336309Y-132024892D01*
X103336309Y-132024892D02*
X103317262Y-132043940D01*
X103317262Y-132043940D02*
X103298214Y-132053463D01*
X103298214Y-132053463D02*
X103260119Y-132053463D01*
X103260119Y-132053463D02*
X103241071Y-132043940D01*
X103241071Y-132043940D02*
X103222024Y-132024892D01*
X103222024Y-132024892D02*
X103212500Y-131986797D01*
X103212500Y-131986797D02*
X103212500Y-131920130D01*
X103212500Y-131920130D02*
X103222024Y-131882035D01*
X103222024Y-131882035D02*
X103241071Y-131862987D01*
X103241071Y-131862987D02*
X103260119Y-131853463D01*
X103431548Y-132053463D02*
X103431548Y-131853463D01*
X103431548Y-131853463D02*
X103545833Y-132053463D01*
X103545833Y-132053463D02*
X103545833Y-131853463D01*
X103641072Y-131948701D02*
X103707738Y-131948701D01*
X103736310Y-132053463D02*
X103641072Y-132053463D01*
X103641072Y-132053463D02*
X103641072Y-131853463D01*
X103641072Y-131853463D02*
X103736310Y-131853463D01*
X96298215Y-132053463D02*
X96298215Y-131853463D01*
X96412500Y-132053463D02*
X96326786Y-131939178D01*
X96412500Y-131853463D02*
X96298215Y-131967749D01*
X96498215Y-131948701D02*
X96564881Y-131948701D01*
X96593453Y-132053463D02*
X96498215Y-132053463D01*
X96498215Y-132053463D02*
X96498215Y-131853463D01*
X96498215Y-131853463D02*
X96593453Y-131853463D01*
X96679167Y-131948701D02*
X96745833Y-131948701D01*
X96774405Y-132053463D02*
X96679167Y-132053463D01*
X96679167Y-132053463D02*
X96679167Y-131853463D01*
X96679167Y-131853463D02*
X96774405Y-131853463D01*
X96860119Y-132053463D02*
X96860119Y-131853463D01*
X96860119Y-131853463D02*
X96936309Y-131853463D01*
X96936309Y-131853463D02*
X96955357Y-131862987D01*
X96955357Y-131862987D02*
X96964880Y-131872511D01*
X96964880Y-131872511D02*
X96974404Y-131891559D01*
X96974404Y-131891559D02*
X96974404Y-131920130D01*
X96974404Y-131920130D02*
X96964880Y-131939178D01*
X96964880Y-131939178D02*
X96955357Y-131948701D01*
X96955357Y-131948701D02*
X96936309Y-131958225D01*
X96936309Y-131958225D02*
X96860119Y-131958225D01*
X97060119Y-131977273D02*
X97212500Y-131977273D01*
X97345833Y-131853463D02*
X97383928Y-131853463D01*
X97383928Y-131853463D02*
X97402976Y-131862987D01*
X97402976Y-131862987D02*
X97422023Y-131882035D01*
X97422023Y-131882035D02*
X97431547Y-131920130D01*
X97431547Y-131920130D02*
X97431547Y-131986797D01*
X97431547Y-131986797D02*
X97422023Y-132024892D01*
X97422023Y-132024892D02*
X97402976Y-132043940D01*
X97402976Y-132043940D02*
X97383928Y-132053463D01*
X97383928Y-132053463D02*
X97345833Y-132053463D01*
X97345833Y-132053463D02*
X97326785Y-132043940D01*
X97326785Y-132043940D02*
X97307738Y-132024892D01*
X97307738Y-132024892D02*
X97298214Y-131986797D01*
X97298214Y-131986797D02*
X97298214Y-131920130D01*
X97298214Y-131920130D02*
X97307738Y-131882035D01*
X97307738Y-131882035D02*
X97326785Y-131862987D01*
X97326785Y-131862987D02*
X97345833Y-131853463D01*
X97517262Y-131853463D02*
X97517262Y-132015368D01*
X97517262Y-132015368D02*
X97526785Y-132034416D01*
X97526785Y-132034416D02*
X97536309Y-132043940D01*
X97536309Y-132043940D02*
X97555357Y-132053463D01*
X97555357Y-132053463D02*
X97593452Y-132053463D01*
X97593452Y-132053463D02*
X97612500Y-132043940D01*
X97612500Y-132043940D02*
X97622023Y-132034416D01*
X97622023Y-132034416D02*
X97631547Y-132015368D01*
X97631547Y-132015368D02*
X97631547Y-131853463D01*
X97698214Y-131853463D02*
X97812500Y-131853463D01*
X97755357Y-132053463D02*
X97755357Y-131853463D01*
X98012500Y-131853463D02*
X98145833Y-131853463D01*
X98145833Y-131853463D02*
X98012500Y-132053463D01*
X98012500Y-132053463D02*
X98145833Y-132053463D01*
X98260119Y-131853463D02*
X98298214Y-131853463D01*
X98298214Y-131853463D02*
X98317262Y-131862987D01*
X98317262Y-131862987D02*
X98336309Y-131882035D01*
X98336309Y-131882035D02*
X98345833Y-131920130D01*
X98345833Y-131920130D02*
X98345833Y-131986797D01*
X98345833Y-131986797D02*
X98336309Y-132024892D01*
X98336309Y-132024892D02*
X98317262Y-132043940D01*
X98317262Y-132043940D02*
X98298214Y-132053463D01*
X98298214Y-132053463D02*
X98260119Y-132053463D01*
X98260119Y-132053463D02*
X98241071Y-132043940D01*
X98241071Y-132043940D02*
X98222024Y-132024892D01*
X98222024Y-132024892D02*
X98212500Y-131986797D01*
X98212500Y-131986797D02*
X98212500Y-131920130D01*
X98212500Y-131920130D02*
X98222024Y-131882035D01*
X98222024Y-131882035D02*
X98241071Y-131862987D01*
X98241071Y-131862987D02*
X98260119Y-131853463D01*
X98431548Y-132053463D02*
X98431548Y-131853463D01*
X98431548Y-131853463D02*
X98545833Y-132053463D01*
X98545833Y-132053463D02*
X98545833Y-131853463D01*
X98641072Y-131948701D02*
X98707738Y-131948701D01*
X98736310Y-132053463D02*
X98641072Y-132053463D01*
X98641072Y-132053463D02*
X98641072Y-131853463D01*
X98641072Y-131853463D02*
X98736310Y-131853463D01*
X96431547Y-131653463D02*
X96431547Y-131453463D01*
X96431547Y-131453463D02*
X96545832Y-131653463D01*
X96545832Y-131653463D02*
X96545832Y-131453463D01*
X96669642Y-131653463D02*
X96650594Y-131643940D01*
X96650594Y-131643940D02*
X96641071Y-131634416D01*
X96641071Y-131634416D02*
X96631547Y-131615368D01*
X96631547Y-131615368D02*
X96631547Y-131558225D01*
X96631547Y-131558225D02*
X96641071Y-131539178D01*
X96641071Y-131539178D02*
X96650594Y-131529654D01*
X96650594Y-131529654D02*
X96669642Y-131520130D01*
X96669642Y-131520130D02*
X96698213Y-131520130D01*
X96698213Y-131520130D02*
X96717261Y-131529654D01*
X96717261Y-131529654D02*
X96726785Y-131539178D01*
X96726785Y-131539178D02*
X96736309Y-131558225D01*
X96736309Y-131558225D02*
X96736309Y-131615368D01*
X96736309Y-131615368D02*
X96726785Y-131634416D01*
X96726785Y-131634416D02*
X96717261Y-131643940D01*
X96717261Y-131643940D02*
X96698213Y-131653463D01*
X96698213Y-131653463D02*
X96669642Y-131653463D01*
X97041070Y-131548701D02*
X96974404Y-131548701D01*
X96974404Y-131653463D02*
X96974404Y-131453463D01*
X96974404Y-131453463D02*
X97069642Y-131453463D01*
X97145833Y-131634416D02*
X97155356Y-131643940D01*
X97155356Y-131643940D02*
X97145833Y-131653463D01*
X97145833Y-131653463D02*
X97136309Y-131643940D01*
X97136309Y-131643940D02*
X97145833Y-131634416D01*
X97145833Y-131634416D02*
X97145833Y-131653463D01*
X97355356Y-131634416D02*
X97345832Y-131643940D01*
X97345832Y-131643940D02*
X97317261Y-131653463D01*
X97317261Y-131653463D02*
X97298213Y-131653463D01*
X97298213Y-131653463D02*
X97269642Y-131643940D01*
X97269642Y-131643940D02*
X97250594Y-131624892D01*
X97250594Y-131624892D02*
X97241071Y-131605844D01*
X97241071Y-131605844D02*
X97231547Y-131567749D01*
X97231547Y-131567749D02*
X97231547Y-131539178D01*
X97231547Y-131539178D02*
X97241071Y-131501082D01*
X97241071Y-131501082D02*
X97250594Y-131482035D01*
X97250594Y-131482035D02*
X97269642Y-131462987D01*
X97269642Y-131462987D02*
X97298213Y-131453463D01*
X97298213Y-131453463D02*
X97317261Y-131453463D01*
X97317261Y-131453463D02*
X97345832Y-131462987D01*
X97345832Y-131462987D02*
X97355356Y-131472511D01*
X97526785Y-131520130D02*
X97526785Y-131653463D01*
X97441071Y-131520130D02*
X97441071Y-131624892D01*
X97441071Y-131624892D02*
X97450594Y-131643940D01*
X97450594Y-131643940D02*
X97469642Y-131653463D01*
X97469642Y-131653463D02*
X97498213Y-131653463D01*
X97498213Y-131653463D02*
X97517261Y-131643940D01*
X97517261Y-131643940D02*
X97526785Y-131634416D01*
X97745832Y-131520130D02*
X97822023Y-131520130D01*
X97774404Y-131453463D02*
X97774404Y-131624892D01*
X97774404Y-131624892D02*
X97783927Y-131643940D01*
X97783927Y-131643940D02*
X97802975Y-131653463D01*
X97802975Y-131653463D02*
X97822023Y-131653463D01*
X97888690Y-131653463D02*
X97888690Y-131520130D01*
X97888690Y-131558225D02*
X97898213Y-131539178D01*
X97898213Y-131539178D02*
X97907737Y-131529654D01*
X97907737Y-131529654D02*
X97926785Y-131520130D01*
X97926785Y-131520130D02*
X97945832Y-131520130D01*
X98098214Y-131653463D02*
X98098214Y-131548701D01*
X98098214Y-131548701D02*
X98088690Y-131529654D01*
X98088690Y-131529654D02*
X98069642Y-131520130D01*
X98069642Y-131520130D02*
X98031547Y-131520130D01*
X98031547Y-131520130D02*
X98012500Y-131529654D01*
X98098214Y-131643940D02*
X98079166Y-131653463D01*
X98079166Y-131653463D02*
X98031547Y-131653463D01*
X98031547Y-131653463D02*
X98012500Y-131643940D01*
X98012500Y-131643940D02*
X98002976Y-131624892D01*
X98002976Y-131624892D02*
X98002976Y-131605844D01*
X98002976Y-131605844D02*
X98012500Y-131586797D01*
X98012500Y-131586797D02*
X98031547Y-131577273D01*
X98031547Y-131577273D02*
X98079166Y-131577273D01*
X98079166Y-131577273D02*
X98098214Y-131567749D01*
X98279166Y-131643940D02*
X98260118Y-131653463D01*
X98260118Y-131653463D02*
X98222023Y-131653463D01*
X98222023Y-131653463D02*
X98202975Y-131643940D01*
X98202975Y-131643940D02*
X98193452Y-131634416D01*
X98193452Y-131634416D02*
X98183928Y-131615368D01*
X98183928Y-131615368D02*
X98183928Y-131558225D01*
X98183928Y-131558225D02*
X98193452Y-131539178D01*
X98193452Y-131539178D02*
X98202975Y-131529654D01*
X98202975Y-131529654D02*
X98222023Y-131520130D01*
X98222023Y-131520130D02*
X98260118Y-131520130D01*
X98260118Y-131520130D02*
X98279166Y-131529654D01*
X98364881Y-131653463D02*
X98364881Y-131453463D01*
X98383928Y-131577273D02*
X98441071Y-131653463D01*
X98441071Y-131520130D02*
X98364881Y-131596320D01*
X98517262Y-131643940D02*
X98536309Y-131653463D01*
X98536309Y-131653463D02*
X98574405Y-131653463D01*
X98574405Y-131653463D02*
X98593452Y-131643940D01*
X98593452Y-131643940D02*
X98602976Y-131624892D01*
X98602976Y-131624892D02*
X98602976Y-131615368D01*
X98602976Y-131615368D02*
X98593452Y-131596320D01*
X98593452Y-131596320D02*
X98574405Y-131586797D01*
X98574405Y-131586797D02*
X98545833Y-131586797D01*
X98545833Y-131586797D02*
X98526786Y-131577273D01*
X98526786Y-131577273D02*
X98517262Y-131558225D01*
X98517262Y-131558225D02*
X98517262Y-131548701D01*
X98517262Y-131548701D02*
X98526786Y-131529654D01*
X98526786Y-131529654D02*
X98545833Y-131520130D01*
X98545833Y-131520130D02*
X98574405Y-131520130D01*
X98574405Y-131520130D02*
X98593452Y-131529654D01*
X101431547Y-131653463D02*
X101431547Y-131453463D01*
X101431547Y-131453463D02*
X101545832Y-131653463D01*
X101545832Y-131653463D02*
X101545832Y-131453463D01*
X101669642Y-131653463D02*
X101650594Y-131643940D01*
X101650594Y-131643940D02*
X101641071Y-131634416D01*
X101641071Y-131634416D02*
X101631547Y-131615368D01*
X101631547Y-131615368D02*
X101631547Y-131558225D01*
X101631547Y-131558225D02*
X101641071Y-131539178D01*
X101641071Y-131539178D02*
X101650594Y-131529654D01*
X101650594Y-131529654D02*
X101669642Y-131520130D01*
X101669642Y-131520130D02*
X101698213Y-131520130D01*
X101698213Y-131520130D02*
X101717261Y-131529654D01*
X101717261Y-131529654D02*
X101726785Y-131539178D01*
X101726785Y-131539178D02*
X101736309Y-131558225D01*
X101736309Y-131558225D02*
X101736309Y-131615368D01*
X101736309Y-131615368D02*
X101726785Y-131634416D01*
X101726785Y-131634416D02*
X101717261Y-131643940D01*
X101717261Y-131643940D02*
X101698213Y-131653463D01*
X101698213Y-131653463D02*
X101669642Y-131653463D01*
X102041070Y-131548701D02*
X101974404Y-131548701D01*
X101974404Y-131653463D02*
X101974404Y-131453463D01*
X101974404Y-131453463D02*
X102069642Y-131453463D01*
X102145833Y-131634416D02*
X102155356Y-131643940D01*
X102155356Y-131643940D02*
X102145833Y-131653463D01*
X102145833Y-131653463D02*
X102136309Y-131643940D01*
X102136309Y-131643940D02*
X102145833Y-131634416D01*
X102145833Y-131634416D02*
X102145833Y-131653463D01*
X102355356Y-131634416D02*
X102345832Y-131643940D01*
X102345832Y-131643940D02*
X102317261Y-131653463D01*
X102317261Y-131653463D02*
X102298213Y-131653463D01*
X102298213Y-131653463D02*
X102269642Y-131643940D01*
X102269642Y-131643940D02*
X102250594Y-131624892D01*
X102250594Y-131624892D02*
X102241071Y-131605844D01*
X102241071Y-131605844D02*
X102231547Y-131567749D01*
X102231547Y-131567749D02*
X102231547Y-131539178D01*
X102231547Y-131539178D02*
X102241071Y-131501082D01*
X102241071Y-131501082D02*
X102250594Y-131482035D01*
X102250594Y-131482035D02*
X102269642Y-131462987D01*
X102269642Y-131462987D02*
X102298213Y-131453463D01*
X102298213Y-131453463D02*
X102317261Y-131453463D01*
X102317261Y-131453463D02*
X102345832Y-131462987D01*
X102345832Y-131462987D02*
X102355356Y-131472511D01*
X102526785Y-131520130D02*
X102526785Y-131653463D01*
X102441071Y-131520130D02*
X102441071Y-131624892D01*
X102441071Y-131624892D02*
X102450594Y-131643940D01*
X102450594Y-131643940D02*
X102469642Y-131653463D01*
X102469642Y-131653463D02*
X102498213Y-131653463D01*
X102498213Y-131653463D02*
X102517261Y-131643940D01*
X102517261Y-131643940D02*
X102526785Y-131634416D01*
X102745832Y-131520130D02*
X102822023Y-131520130D01*
X102774404Y-131453463D02*
X102774404Y-131624892D01*
X102774404Y-131624892D02*
X102783927Y-131643940D01*
X102783927Y-131643940D02*
X102802975Y-131653463D01*
X102802975Y-131653463D02*
X102822023Y-131653463D01*
X102888690Y-131653463D02*
X102888690Y-131520130D01*
X102888690Y-131558225D02*
X102898213Y-131539178D01*
X102898213Y-131539178D02*
X102907737Y-131529654D01*
X102907737Y-131529654D02*
X102926785Y-131520130D01*
X102926785Y-131520130D02*
X102945832Y-131520130D01*
X103098214Y-131653463D02*
X103098214Y-131548701D01*
X103098214Y-131548701D02*
X103088690Y-131529654D01*
X103088690Y-131529654D02*
X103069642Y-131520130D01*
X103069642Y-131520130D02*
X103031547Y-131520130D01*
X103031547Y-131520130D02*
X103012500Y-131529654D01*
X103098214Y-131643940D02*
X103079166Y-131653463D01*
X103079166Y-131653463D02*
X103031547Y-131653463D01*
X103031547Y-131653463D02*
X103012500Y-131643940D01*
X103012500Y-131643940D02*
X103002976Y-131624892D01*
X103002976Y-131624892D02*
X103002976Y-131605844D01*
X103002976Y-131605844D02*
X103012500Y-131586797D01*
X103012500Y-131586797D02*
X103031547Y-131577273D01*
X103031547Y-131577273D02*
X103079166Y-131577273D01*
X103079166Y-131577273D02*
X103098214Y-131567749D01*
X103279166Y-131643940D02*
X103260118Y-131653463D01*
X103260118Y-131653463D02*
X103222023Y-131653463D01*
X103222023Y-131653463D02*
X103202975Y-131643940D01*
X103202975Y-131643940D02*
X103193452Y-131634416D01*
X103193452Y-131634416D02*
X103183928Y-131615368D01*
X103183928Y-131615368D02*
X103183928Y-131558225D01*
X103183928Y-131558225D02*
X103193452Y-131539178D01*
X103193452Y-131539178D02*
X103202975Y-131529654D01*
X103202975Y-131529654D02*
X103222023Y-131520130D01*
X103222023Y-131520130D02*
X103260118Y-131520130D01*
X103260118Y-131520130D02*
X103279166Y-131529654D01*
X103364881Y-131653463D02*
X103364881Y-131453463D01*
X103383928Y-131577273D02*
X103441071Y-131653463D01*
X103441071Y-131520130D02*
X103364881Y-131596320D01*
X103517262Y-131643940D02*
X103536309Y-131653463D01*
X103536309Y-131653463D02*
X103574405Y-131653463D01*
X103574405Y-131653463D02*
X103593452Y-131643940D01*
X103593452Y-131643940D02*
X103602976Y-131624892D01*
X103602976Y-131624892D02*
X103602976Y-131615368D01*
X103602976Y-131615368D02*
X103593452Y-131596320D01*
X103593452Y-131596320D02*
X103574405Y-131586797D01*
X103574405Y-131586797D02*
X103545833Y-131586797D01*
X103545833Y-131586797D02*
X103526786Y-131577273D01*
X103526786Y-131577273D02*
X103517262Y-131558225D01*
X103517262Y-131558225D02*
X103517262Y-131548701D01*
X103517262Y-131548701D02*
X103526786Y-131529654D01*
X103526786Y-131529654D02*
X103545833Y-131520130D01*
X103545833Y-131520130D02*
X103574405Y-131520130D01*
X103574405Y-131520130D02*
X103593452Y-131529654D01*
D11*
%TO.C,H1*%
X122850000Y-98425000D02*
G75*
G03*
X118450000Y-98425000I-2200000J0D01*
G01*
X118450000Y-98425000D02*
G75*
G03*
X122850000Y-98425000I2200000J0D01*
G01*
%TO.C,H2*%
X208575000Y-98425000D02*
G75*
G03*
X204175000Y-98425000I-2200000J0D01*
G01*
X204175000Y-98425000D02*
G75*
G03*
X208575000Y-98425000I2200000J0D01*
G01*
%TO.C,H5*%
X208575000Y-155575000D02*
G75*
G03*
X204175000Y-155575000I-2200000J0D01*
G01*
X204175000Y-155575000D02*
G75*
G03*
X208575000Y-155575000I2200000J0D01*
G01*
%TO.C,H6*%
X294300000Y-155575000D02*
G75*
G03*
X289900000Y-155575000I-2200000J0D01*
G01*
X289900000Y-155575000D02*
G75*
G03*
X294300000Y-155575000I2200000J0D01*
G01*
%TO.C,H4*%
X122850000Y-155575000D02*
G75*
G03*
X118450000Y-155575000I-2200000J0D01*
G01*
X118450000Y-155575000D02*
G75*
G03*
X122850000Y-155575000I2200000J0D01*
G01*
%TO.C,H3*%
X294300000Y-98425000D02*
G75*
G03*
X289900000Y-98425000I-2200000J0D01*
G01*
X289900000Y-98425000D02*
G75*
G03*
X294300000Y-98425000I2200000J0D01*
G01*
%TD*%
M02*
